<?xml version="1.0" encoding="utf-8"?>
<!-- Generator: Adobe Illustrator 16.0.0, SVG Export Plug-In . SVG Version: 6.00 Build 0)  -->
<!DOCTYPE svg PUBLIC "-//W3C//DTD SVG 1.1//EN" "http://www.w3.org/Graphics/SVG/1.1/DTD/svg11.dtd">
<svg version="1.1" id="Layer_1" xmlns="http://www.w3.org/2000/svg" xmlns:xlink="http://www.w3.org/1999/xlink" x="0px" y="0px"
	 width="526.581px" height="214.601px" viewBox="0 0 526.581 214.601" enable-background="new 0 0 526.581 214.601"
	 xml:space="preserve">
<g>
	<path d="M49.474,65.909l-0.228-0.245l0.005,3.126l3.607,1.513l3.223-1.799c-0.921-0.806-2.031-1.698-2.308-1.604
		C53.275,67.065,49.474,65.909,49.474,65.909z"/>
	<polygon points="253.024,39.353 253.717,47.165 260.875,50.783 258.743,40.959 	"/>
	<path d="M123.263,58.126l-5.798,9.711l5.845-1.419l4.419,0.15c-0.383-0.479-0.646-0.822-0.617-0.826
		c0.033-0.008,0.709-0.213,1.561-0.468L123.263,58.126z"/>
	<path d="M78.984,36.289c-0.108,0.44-1.437,1.929-1.958,2.501l0.406,1.147l3.657-1.264l0.55-3.07
		C81.64,35.604,79.121,35.742,78.984,36.289z"/>
	<path d="M90.609,64.782c3.064,2.301,5.453,4.087,8.705,6.528C99.874,63,98.711,62.096,90.609,64.782z"/>
	<path d="M59.482,61.134l0.832,3.899c1.125-0.693,2.401-1.557,2.392-1.871c-0.01-0.568,2.395-4.125,2.395-4.125l0.325-0.157
		l-3.232-0.992L59.482,61.134z"/>
	<polygon points="285.945,34.486 285.915,36.663 294.674,34.778 291.729,30.535 	"/>
	<polygon points="97.608,61.18 106.125,53.956 94.743,56.267 	"/>
	<polygon points="138.671,41.056 137.06,43.084 143.205,43.049 147.43,40.173 144.101,35.752 	"/>
	<path d="M37.588,57.938l-3.334,1.153l-0.792,2.203c0,0,3.533-0.096,3.723-0.476c0.108-0.221,1.095-0.815,1.921-1.282l-1.605-1.33
		L37.588,57.938z"/>
	<path d="M358.652,17.921c-0.169,0.687-2.24,3.008-3.054,3.899l0.634,1.792l5.704-1.975l0.856-4.786
		C362.793,16.851,358.865,17.066,358.652,17.921z"/>
	<polygon points="417.807,10.659 418.17,14.811 418.785,21.207 424.002,14.11 418.825,9.293 	"/>
	<path d="M440.794,20.763l-0.73,0.54l5.13,2.613l3.782-1.546l1.601-4.456c0,0-6.595,0.178-6.951,0.892
		C443.452,19.148,442.129,19.986,440.794,20.763z"/>
	<path d="M224.512,38.097l0.284,2.285l-3.123,6.586l-3.463,0.974l0.445,5.43c1.032,0.78,1.974,1.34,1.934,1.363
		c-0.037,0.018-0.854,0.369-1.77,0.907l0.461,1.371c0,0,6.908-8.192,11.361-10.973l-4.426-9.232L224.512,38.097z"/>
	<path d="M339.68,78.181c-1.023,0.292-5.594-0.687-7.364-1.083l-1.87,2.164l6.825,5.979l6.889-2.447
		C344.159,82.795,340.956,77.824,339.68,78.181z"/>
	<polygon points="460.078,32.869 461.475,37.427 461.566,40.966 464.858,38.152 	"/>
	<polygon points="389.594,59.042 385.517,55.69 385.721,64.707 392.242,62.996 392.219,61.241 	"/>
	<polygon points="230.956,65.705 232.848,65.29 231.711,66.724 233.272,70.032 232.287,70.351 232.551,71.323 232.088,71.498 
		232.597,72.931 239.021,74.534 243.519,70.003 231.606,62.395 	"/>
	<polygon points="99.072,28.779 108.734,24.082 105.033,20.34 	"/>
</g>
<g>
	<path d="M161.931,111.834c5.835,3.487,10.365,6.209,16.544,9.906C177.516,104.817,175.303,103.466,161.931,111.834z"/>
	<path d="M73.648,195.495l-4.119,9.13c2.45-0.407,5.498-0.836,6.042-0.478c0.088,0.057,0.238,0.049,0.437-0.012
		c1.899-0.582,8.264-6.017,8.264-6.017l-5.104-4.441L73.648,195.495z"/>
	<polygon points="250.782,105.767 283.883,77.674 239.635,86.664 	"/>
	<path d="M184.005,77.701c0.064-0.318,0.586-0.997,1.305-1.804l-3.361-3.549l-2.185,4.969l1.29,2.091
		C182.655,78.76,183.919,78.127,184.005,77.701z"/>
	<path d="M68.392,77.021l-1.914,3.298l-12.612,6.419l-6.882-2.465l-5.961,10.342c0.788,2.51,1.54,4.961,1.448,4.948
		c-0.083-0.013-1.923-0.182-4.079-0.37l-0.938,2.906c0,0,17-6.083,31.693-4.746l3.547-20.483L68.392,77.021z"/>
	<polygon points="418.856,63.787 416.403,50.95 395.415,55.587 409.445,58.734 	"/>
	<polygon points="412.06,131.223 441.836,109.538 427.082,99.152 	"/>
	<polygon points="202.53,84.934 182.853,90.854 182.978,95.393 191.774,94.939 190.293,100.096 200.521,98.897 203.232,100.092 
		205.167,94.362 201.852,86.045 	"/>
	<path d="M516.293,145.292l-1.523-0.707l-3.688,4.477l0.054,5.7l3.959,3.958c0,0,2.545-8.956,1.951-9.731
		C516.8,148.683,516.521,147.069,516.293,145.292z"/>
	<path d="M19.209,111.953l-8.247,8.471l0.936,7.788c0,0,10.434-5.595,10.434-7.026c-0.003-0.826,2.051-4.09,3.822-6.726
		l-6.806-1.574L19.209,111.953z"/>
	<path d="M431.462,182.081l-24.304,5.79l-7.303,14.646c0,0,24.585,1.479,26.141-1.052c0.901-1.455,8.604-4.774,14.591-7.544
		l-9.896-10.025L431.462,182.081z"/>
	<path d="M257.956,123.949c-0.543,0.67-6.808,2.377-6.808,2.377l-3.015-0.826l-5.224,2.111l6.385,3.563l13.397-2.228l2.734-4.276
		C265.427,124.67,258.495,123.295,257.956,123.949z"/>
</g>
</svg>
