<?xml version="1.0" encoding="utf-8"?>
<!-- Generator: Adobe Illustrator 16.0.0, SVG Export Plug-In . SVG Version: 6.00 Build 0)  -->
<!DOCTYPE svg PUBLIC "-//W3C//DTD SVG 1.1//EN" "http://www.w3.org/Graphics/SVG/1.1/DTD/svg11.dtd">
<svg version="1.1" id="Layer_1" xmlns="http://www.w3.org/2000/svg" xmlns:xlink="http://www.w3.org/1999/xlink" x="0px" y="0px"
	 width="669.5px" height="194.984px" viewBox="0 0 669.5 194.984" enable-background="new 0 0 669.5 194.984" xml:space="preserve">
<polygon fill="#222222" points="226.389,13.962 225.832,14.836 225.465,15.174 226.904,15.037 "/>
<polygon fill="#222222" points="236.112,26.994 236.02,27.916 237.805,28.922 "/>
<polygon fill="#222222" points="589.251,17.296 590.705,13.244 587.784,13.414 "/>
<polygon fill="#222222" points="468.51,55.688 468.382,56.344 469.878,56.363 470.664,54.198 470.661,54.179 "/>
<polygon fill="#222222" points="466.817,55.708 467.146,55.718 467.081,55.522 "/>
<path fill="#222222" d="M340.272,73.785c1.979,2.43,3.521,4.312,5.621,6.877C348.125,73.17,347.375,72.238,340.272,73.785z"/>
<path fill="#222222" d="M352.602,64.892c1.574,0.154,2.793,0.272,4.457,0.438C355.175,61.871,354.575,61.805,352.602,64.892z"/>
<path fill="#222222" d="M367.251,72.918l-0.463,0.627l0.725,0.98l0.985-0.619l2.069,2.186c0.053-0.521,0.101-0.893,0.118-0.879
	c0.022,0.016,0.557,0.301,1.228,0.65l0.999-7.59l-9.353,2.429L367.251,72.918z"/>
<path fill="#222222" d="M400.148,59.474c0.901,1.103,1.609,1.958,2.564,3.13C403.727,59.184,403.384,58.76,400.148,59.474z"/>
<polygon fill="#222222" points="548.808,59.189 551.315,52.849 543.796,59.923 "/>
<path fill="#222222" d="M443.739,42.884c-0.511,0.155-1.213,0.741-2.206,1.705c1.293,0.729,2.288,1.302,3.647,2.087
	C444.956,43.753,444.672,42.597,443.739,42.884z"/>
<path fill="#222222" d="M236.044,64.427c-0.804,0.246-1.344,1.736-2.047,4.613c1.991-0.623,3.536-1.128,5.632-1.801
	C237.898,65.166,236.842,64.183,236.044,64.427z"/>
<path fill="#222222" d="M546.278,4.503c0.013,0,0.019,0.002,0.021,0.004l-3.325-2.521C543.888,3.232,545.161,4.407,546.278,4.503z"
	/>
<path fill="#222222" d="M561.438-7.934c-0.555-0.765-1.42-1.688-2.104-1.672c-1.708,0.042-3.42,0.125-5.131,0.19l-0.151,0.173
	l5.226,2.371L561.438-7.934z"/>
<path fill="#222222" d="M226.534,55.333l2.009,3.292l2.507-3.47l-0.64-1.826c-1.347,0.234-2.426,0.512-2.562,0.825
	C227.741,54.389,227.228,54.825,226.534,55.333z"/>
<polygon fill="#222222" points="157.381,85.38 160.292,81.917 156.153,85.049 "/>
<path fill="#222222" d="M96.926,50.832l2.446-2.352c0,0-3.213-2.417-3.795-2.237c-0.017,0.005-0.032,0.013-0.041,0.022
	c-0.03,0.021-0.071,0.04-0.125,0.057c-0.292,0.09-0.927,0.121-1.61,0.123l-0.588,0.966l1.248,2.932L96.926,50.832z"/>
<polygon fill="#222222" points="82.687,65.222 84.448,67.675 83.209,68.441 85.379,71.15 85.688,72.211 87.1,71.456 88.004,68.571 
	88.348,68.516 83.497,64.127 "/>
<path fill="#222222" d="M203.859,34.682l5.187-3.397l0.409-4.103c0,0-5.991,1.685-6.148,2.417c-0.093,0.421-1.522,1.858-2.731,3.015
	l3.31,1.579L203.859,34.682z"/>
<path fill="#222222" d="M232.845,22.045l0.202-3.167c0,0-4.212,1.341-4.308,1.862c-0.096,0.527-3.008,3.354-3.008,3.354
	l-1.907,0.459l-2.22,2.733l4.572,0.025L232.845,22.045z"/>
<polygon fill="#222222" points="246.121,28.463 245.994,28.445 245.125,29.049 247.104,29.259 "/>
<polygon fill="#222222" points="210.136,117.331 210.472,118.772 211.192,118.763 210.865,116.968 "/>
<path fill="#222222" d="M129.66,104.297l-0.184,0.468l5.998-1.576l1.689-3.765c0,0-2.663-0.132-4.609-0.04
	c0.574-0.903,1.108-2.312,1.721-4.282c-1.569,0.271-2.965,0.513-4.384,0.756l0.496-3.473l1.117,0.103l-0.611-1.229l-0.358,0.103
	l0.152-1.062l-3.255,1.184l-1.785-1.557c0,0-0.264,1.144-0.502,2.388l-2.894,1.053l2.51,1.718c0.002,0.169,0.023,0.289,0.064,0.337
	c0.144,0.155,0.347,1.054,0.519,2.016l0.878,0.331l0.186-0.252c1.437,1.436,2.538,2.364,3.437,2.795
	c-0.717,0.428-1.832,0.977-2.822,1.441L129.66,104.297z"/>
<path fill="#222222" d="M203.571,118.868c-0.302-0.004-0.916-0.207-1.641-0.492l-2.952-1.927l-0.333,0.478
	c-0.553-0.262-1.047-0.505-1.399-0.679l-2.094,1.167l2.484,3.138l-1.21,1.196l-2.443-1.105l-0.74,0.695l5.599,0.741l0.138,0.174
	c0.109,2.146,0.804,2.785,2.448,2.28c0.599-0.183,1.332-0.526,2.199-0.991l3.045-0.062
	C206.67,123.479,204.783,118.91,203.571,118.868z"/>
<path fill="#222222" d="M124.76,98.46l0.661-0.882l-0.878-0.329C124.622,97.657,124.7,98.077,124.76,98.46z"/>
<polygon fill="#222222" points="187.711,77.964 187.634,78.048 187.867,78.209 "/>
<polygon fill="#222222" points="184.544,82.985 184.893,83.188 185.126,82.669 184.625,81.959 "/>
<path fill="#222222" d="M311.892,53.192c0.762-0.249,1.35-0.45,2.15-0.708C312.232,51.408,311.942,51.5,311.892,53.192z"/>
<polygon fill="#222222" points="231.662,2.776 228.336,1.07 228.286,1.048 226.028,3.808 226.057,4.176 "/>
<polygon fill="#222222" points="246.577,22.703 243.259,25.78 243.958,26.051 247.284,24.653 "/>
<polygon fill="#222222" points="255.336,24.353 255.624,24.009 254.793,24.137 "/>
<polygon fill="#222222" points="251.304,21.469 251.349,21.427 249.418,18.427 249.056,18.346 248.659,24.106 "/>
<path fill="#222222" d="M146.597,20c0,0-11.383-1.082-12.145,0.072c-0.372,0.552-2.825,1.717-5.283,2.769
	c-0.522,0.224-1.044,0.454-1.543,0.661l0.172,0.113l8.275,5.576l6.829-1.859L146.597,20z"/>
<polygon fill="#222222" points="138.827,83.799 139.635,80.79 138.079,80.316 "/>
<polygon fill="#222222" points="653.284,52.698 654.618,51.702 653.582,49.059 652.148,49.361 "/>
<polygon fill="#222222" points="270.323,20.585 270.522,22.606 268.856,23.431 268.905,24.135 272.983,20.307 271.239,18.15 
	268.794,18.922 269.182,20.294 "/>
<path fill="#222222" d="M102.197,93.852h-7.262l0.273-0.236l9.729,3.796c0.03-1.208,0.055-2.853,0.075-4.062
	c-2.32,0.282-4.132,2.069-4.132,2.069L102.197,93.852z"/>
<polygon fill="#222222" points="115.496,86.568 114.42,85.971 112.854,89.256 111.935,87.997 110.272,91.884 109.48,92.715 
	110.433,94.225 112.983,94.181 112.255,94.575 112.695,90.226 112.695,90.622 116.425,89.017 114.31,89.109 "/>
<polygon fill="#222222" points="229.179,17.645 229.069,17.755 229.101,17.808 "/>
<polygon fill="#222222" points="376.071,64.713 375.345,65.394 375.948,67.453 "/>
<polygon fill="#222222" points="374.154,69.185 375.208,68.64 374.004,68.714 "/>
<polygon fill="#222222" points="369.975,68.963 370.324,68.318 369.914,68.54 369.891,68.584 "/>
<polygon fill="#222222" points="187.933,128.227 187.897,128.294 190.935,131.15 191.368,131.143 190.195,124.496 "/>
<path fill="#222222" d="M219.992,114.609l-1.459,0.984c0,0,1.56,1.76,1.849,1.674c0.004-0.002,0.007-0.004,0.011-0.008
	c0.003,0,0.009-0.004,0.013-0.004c0.125-0.038,0.515,0.021,0.925,0.117l0.39-0.457l-0.448-1.745L219.992,114.609z"/>
<polygon fill="#222222" points="311.088,47.26 312.595,49.098 314.959,51.904 315.623,45.842 311.224,46.08 "/>
<polygon fill="#222222" points="407.942,23.067 412.677,21.426 411.312,19.99 "/>
<path fill="#222222" d="M360.008,5.608l0.813,1.873c0.312-0.033,0.543-0.11,0.543-0.11l-0.181,1.645l1.401,4.719h4.141
	L360.008,5.608z"/>
<path fill="#222222" d="M439.174,64.651c-0.029,0.924-2.042,4.415-2.835,5.771l1.28,2.104l6.717-4.023l-0.186-6.312
	C444.15,62.187,439.218,63.51,439.174,64.651z"/>
<polygon fill="#222222" points="391.003,57.01 390.639,60.848 390.884,61.159 395.072,56.537 391.068,57.003 "/>
<path fill="#222222" d="M474.123,13.912c0,0-1.836,7.917-1.283,8.548c0.221,0.256,0.533,1.643,0.815,3.157l1.352,0.512l3.044-4.125
	l-0.297-4.948L474.123,13.912z"/>
<path fill="#222222" d="M472.737,27.214l1.022-1.377l-1.353-0.51C472.526,25.951,472.639,26.612,472.737,27.214z"/>
<polygon fill="#222222" points="542.071,-4.839 539.788,-0.039 541.707,1.022 543.414,-2.999 "/>
<polygon fill="#222222" points="567.7,0.162 567.82,0.036 565.585,-3.49 564.87,7.137 565.673,8.231 568.788,1.571 568.069,0.422 
	"/>
<polygon fill="#222222" points="563.896,9.321 563.778,9.464 564.135,9.71 "/>
<path fill="#222222" d="M543.718,61.593l0.229,2.455l-0.293,0.149l3.744,1.822l2.503-1.176c0,0-3.029-2.876-3.509-2.711
	C546.119,62.219,544.801,61.891,543.718,61.593z"/>
<polygon fill="#222222" points="583.714,7.815 584.398,-2.382 583.278,-4.136 582.123,-2.918 579.693,2.791 583.483,7.984 
	581.521,9.42 582.591,10.992 584.162,10.879 585.274,13.358 583.521,15.108 583.883,15.981 587.413,9.39 584.281,7.402 "/>
<path fill="#222222" d="M376.367,62.91c1.05-0.94,1.984-1.787,2.927-2.632l0.719-0.443l-0.007-0.195
	c0.928-0.834,1.875-1.688,2.954-2.662C375.382,55.107,374.479,55.902,376.367,62.91z"/>
<polygon fill="#222222" points="602.28,8.878 597.686,8.871 601.216,13.242 608.239,7.228 "/>
<polygon fill="#222222" points="520.697,9.452 521.654,9.901 521.903,7.172 520.812,7.244 "/>
<path fill="#222222" d="M443.282,42.308c0,0,1.45,0.885,1.735,0.627c0.229-0.199,1.531-0.521,2.038-0.637l0.212-0.79l-2.51-0.695
	L443.282,42.308z"/>
<polygon fill="#222222" points="477.284,-0.701 478.3,-0.271 478.307,-2.673 477.95,-2.503 "/>
<polygon fill="#222222" points="479.229,-2.746 479.598,-3.293 479.19,-3.094 "/>
<polygon fill="#222222" points="452.404,36.058 454.087,37.607 454.711,36.431 453.287,35.264 "/>
<polygon fill="#222222" points="460.1,30.44 462.723,28.033 458.558,27.355 457.729,28.008 458.089,28.776 "/>
<polygon fill="#222222" points="459.47,24.878 457.154,22.765 456.622,23.19 456.476,23.406 456.441,23.338 454.791,24.662 
	458.945,25.363 "/>
<polygon fill="#222222" points="460.62,26.023 460.664,26.083 460.802,25.873 "/>
<polygon fill="#222222" points="463.492,28.608 462.865,28.49 460.24,30.898 461.663,32.067 "/>
<path fill="#222222" d="M468.848,15.608h1.296l-0.226-2.292c0.084-0.125,0.169-0.558,0.253-0.677l-0.312-0.232l-0.113-0.911
	L455.48,4.232c-0.042,1.761-0.088,3.334-0.109,5.11c3.4-0.422,6.051,0.465,6.051,0.465l-1.919,5.8h4.639l-0.302-0.314l0.339,2.925
	c0,0,4.352-1.774,4.356-2.367C468.539,15.73,468.673,15.608,468.848,15.608z"/>
<path fill="#222222" d="M455.277,26.51c-2.265-0.302-4.015-0.541-6.411-0.859C451.405,30.739,452.276,30.866,455.277,26.51z"/>
<path fill="#222222" d="M517.944-12.042l-0.048-0.386l-3.479,3.437l0.337,3.229c0,0,4.354-2.235,4.364-2.826
	c0-0.338,0.884-1.674,1.63-2.749L517.944-12.042z"/>
<polygon fill="#222222" points="654.562,109.241 655.188,107.15 650.395,105.6 "/>
<path fill="#222222" d="M629.244,29.114l6.814,28.844l7.035-4.41l0.415,1.134l1.948,0.32c0,0-0.111-1.6-0.461-1.681
	c-0.137-0.033-0.438-0.247-0.748-0.5l4.112-2.577L629.244,29.114z"/>
<polygon fill="#222222" points="360.358,4.537 361.464,4.635 359.993,3.129 360.262,4.439 "/>
<path fill="#222222" d="M405.156,11.307c-0.08-0.294,0.389-1.665,0.798-2.77l-2.612,0.02l-0.131-0.32l-2.245,3.79l1.024,2.746
	C401.988,14.774,405.286,11.823,405.156,11.307z"/>
<path fill="#222222" d="M408.661,15.549c-1.909,0.77-3.384,1.387-5.412,2.202C407.531,20.609,408.259,20.307,408.661,15.549z"/>
<path fill="#222222" d="M554.868,77.398l-0.004,0.062l3.465,2.409l-3.262,2.309l0.055,1.217c0,0,6.12-4.144,6.179-5.16
	c0.022-0.595,1.363-3.024,2.478-4.954l-5.979,0.104L554.868,77.398z"/>
<polygon fill="#222222" points="462.979,58.106 463.649,58.392 463.796,56.5 463.029,56.563 "/>
<polygon fill="#222222" points="451.433,55.73 448.049,56.382 448.014,57.164 449.507,57.247 449.193,58.112 450.936,58.086 
	451.38,58.337 451.771,57.4 451.307,55.908 "/>
<polygon fill="#222222" points="527.879,54.531 527.718,53.949 526.53,52.478 524.531,53.724 527.259,54.86 "/>
<polygon fill="#222222" points="526.39,56.301 527.736,58.139 528.133,57.926 528.252,57.796 528.271,57.852 529.511,57.196 
	526.794,56.039 "/>
<polygon fill="#222222" points="525.568,55.518 525.709,55.443 525.691,55.385 "/>
<path fill="#222222" d="M207.302,111.651c0.399,2.638,0.708,4.683,1.129,7.481C212.282,113.93,212.153,112.908,207.302,111.651z"/>
<path fill="#222222" d="M196.971,111.01l-1.909-2.437l0.67,3.784C195.732,112.359,196.256,111.783,196.971,111.01z"/>
<polygon fill="#222222" points="110.822,113.354 113.07,114.364 110.812,112.659 "/>
<polygon fill="#222222" points="130.152,108.619 128.724,110.815 131.671,110.266 132.14,109.629 131.778,109.231 "/>
<polygon fill="#222222" points="134.836,108.875 136.749,109.692 137.047,109.292 137.111,109.105 137.156,109.151 138.079,107.884 
	135.129,108.43 "/>
<polygon fill="#222222" points="130.411,111.76 130.518,111.619 130.477,111.584 "/>
<polygon fill="#222222" points="127.543,110.582 127.781,110.677 128.061,110.236 127.622,110.309 "/>
<path fill="#222222" d="M388.515,89.484c0,0,1.093-6.13,0.64-6.562c-0.069-0.065-0.152-0.254-0.244-0.516l0.051,0.025l-0.371-1.134
	c-0.168-0.641-0.341-1.38-0.492-2.062l-0.139,0.143l-0.995-3.023l-0.739-0.312l-0.338,4.788l0.424,0.229l-0.554,0.563l-0.339-0.221
	l0.4,6.074L388.515,89.484z"/>
<polygon fill="#222222" points="241.052,126.204 239.812,124.783 240.303,124.445 240.047,123.984 240.285,123.804 239.704,122.965 
	239.996,122.522 238.151,122.422 237.113,122.711 238.235,121.626 239.041,120.995 239.209,120.062 235.898,121.001 
	229.442,115.472 228.999,119.446 230.075,119.272 229.422,120.027 230.2,121.915 229.657,122.052 229.776,122.601 229.526,122.677 
	229.846,123.735 229.464,124.052 231.129,124.882 232.157,125.032 230.85,125.632 229.951,125.923 229.863,126.104 240.275,131.76 
	241.102,126.868 240.602,127.161 "/>
<path fill="#222222" d="M245.013,11.584c1.406-0.004,2.5-0.013,3.997-0.013C247.023,8.664,246.487,8.664,245.013,11.584z"/>
<path fill="#222222" d="M46.933,63.04l1.47-0.067c-0.09-0.188-0.168-0.35-0.234-0.485L46.933,63.04z"/>
<path fill="#222222" d="M411.722,51.695l1.683,1.083l-0.055,0.267l3.044-1.478l0.509-2.191c0,0-3.354,0.494-3.492,0.88
	C413.326,50.477,412.453,51.154,411.722,51.695z"/>
<polygon fill="#222222" points="431.222,98.094 431.925,96.468 431.778,96.422 "/>
<polygon fill="#222222" points="466.938,99.055 469.375,98.677 466.84,98.238 "/>
<polygon fill="#222222" points="464.171,97.775 466.84,98.238 466.587,96.124 "/>
<polygon fill="#222222" points="185.601,102.197 186.429,101.935 185.972,101.326 "/>
<path fill="#222222" d="M181.831,38.88c-0.708,0.035-1.561,0.083-2.434,0.154l-2.545,2.277l-4.672,5.385l1.714,0.712l7.608-3.117
	l0.918-2.541l-1.31-1.302L181.831,38.88z"/>
<polygon fill="#222222" points="243.368,47.786 239.781,50.272 244.87,52.045 245.985,51.377 245.638,50.329 "/>
<polygon fill="#222222" points="77.018,63.323 77.077,63.256 77.077,62.546 76.197,63.561 "/>
<path fill="#222222" d="M76.583,61.988l1.699-0.798c0,0-2.057-1.95-2.379-1.84c-0.189,0.061-1.085-0.163-1.816-0.368l0.155,1.67
	l-0.199,0.101L76.583,61.988z"/>
<path fill="#222222" d="M130.276,53.506c-0.028,0.022-0.073,0.041-0.128,0.059c-0.293,0.09-0.937,0.125-1.622,0.125l-0.586,0.966
	l1.248,2.932l2.483,0.488l2.446-2.337c0,0-3.214-2.429-3.798-2.252C130.302,53.491,130.289,53.499,130.276,53.506z"/>
<path fill="#222222" d="M169.468,36.219l-0.113,1.837l0.896,3.353h2.656l-4.308-5.491l0.521,1.06
	C169.32,36.952,169.468,36.219,169.468,36.219z"/>
<path fill="#222222" d="M451.233,25.705l-0.064-1.774l3.362-5.667l3.314-0.745l-0.239-5.546c-0.936-0.787-1.841-1.564-1.801-1.581
	c0.037-0.017,0.804-0.408,1.692-0.869l-0.377-1.368c0,0-6.938,7.366-11.275,9.768l3.714,8.925L451.233,25.705z"/>
<polygon fill="#222222" points="308.345,56.391 307.416,58.723 307.593,58.45 312.13,55.732 308.4,56.391 "/>
<path fill="#222222" d="M231.56,53.032c0.124,0.155,0.23,1.074,0.304,1.833l1.505-0.739l0.164,0.152l0.252-2.819l-1.348-1.304
	C232.439,50.155,231.342,52.775,231.56,53.032z"/>
<path fill="#222222" d="M342.844,67.31l-1.438-0.264l0.539,1.638c-0.22-0.071-0.418-0.14-0.646-0.21
	c1.771,6.146,2.695,6.46,6.909,2.259c-1.96-0.644-3.587-1.173-5.489-1.794L342.844,67.31z"/>
<polygon fill="#222222" points="324.719,55.818 324.679,55.78 324.227,55.73 324.859,56.284 "/>
<path fill="#222222" d="M428.393,77.584c-0.63-0.343-1.125-0.604-1.796-0.97C426.779,78.403,427.019,78.535,428.393,77.584z"/>
<polygon fill="#222222" points="250.796,49.802 252.294,52.552 251.008,53.129 252.866,56.166 253.059,57.28 254.539,56.749 
	255.708,53.985 256.045,53.974 251.707,48.829 "/>
<polygon fill="#222222" points="152.534,52.332 152.75,52.096 152.777,52.195 155.055,50.989 150.073,48.893 149.333,49.35 
	151.796,52.725 "/>
<polygon fill="#222222" points="352.865,66.063 353.114,66.449 353.781,66.107 353.141,65.763 "/>
<polygon fill="#222222" points="154.026,102.34 154.145,101.995 153.955,102.27 "/>
<polygon fill="#222222" points="158.887,104.896 159.762,104.719 159.897,104.201 159.436,104.016 "/>
<path fill="#222222" d="M136.304,113.096c3.594,1.609,4.109,1.301,3.812-2.354C138.772,111.571,137.725,112.219,136.304,113.096z"/>
<path fill="#222222" d="M152.676,95.954l-0.102-0.521l-2.407,2.573l0.484-1.132l0.751-0.771l-0.894-1.422l-2.402,0.042l-0.122-0.382
	l-2.234,7.53l0.648,0.352l-0.648,0.924l2.576-0.563l0.309,2.154c0,0,5.846-3.298,5.827-4.111c-0.009-0.469,1.124-2.34,2.095-3.856
	L152.676,95.954z M148.235,99.344l0.101,0.137l-0.009-0.004l-0.465,0.651L148.235,99.344z M147.609,100.656l0.032-0.065
	l-0.024,0.071L147.609,100.656z"/>
<polygon fill="#222222" points="160.328,101.229 161.378,101.165 161.174,100.773 "/>
<polygon fill="#222222" points="255.464,45.823 255.854,45.952 257.627,45.107 257.191,44.058 "/>
<path fill="#222222" d="M324.866,29.397l-1.329-2.896c0,0-2.03,1.584-1.826,2.122c0.115,0.31,0.028,1.403-0.069,2.301l-0.489,0.104
	l-9.903,12.028l0.45,2.991l-1.342,1.45c-0.556-0.909-1.076-1.643-1.311-1.601c-0.354,0.062-1.799-0.807-2.938-1.536l0.197,5.475
	l2.389,2.107l3.484-1.131c0,0-0.754-1.487-1.533-2.826l1.275-0.424l0.19,1.253c0,0,2.538-1.462,4.56-2.836l3.32-1.106l-0.867-1.143
	c0.121-1.154,4.079-7.108,4.079-7.108l3.229-1.559l2.921-5.766l-5.218,1.1L324.866,29.397z"/>
<path fill="#222222" d="M441.259,92.643c0.105,0.102,0.24,0.497,0.381,1.019l2.085-0.75l-1.362-2.144l-1.07,0.113
	C441.169,91.778,441.122,92.506,441.259,92.643z"/>
<polygon fill="#222222" points="448.095,75.672 445.665,75.948 448.688,80.177 "/>
<path fill="#222222" d="M323.262,60.353l-0.247,1.789l1.153,0.878c0,0,0.477-1.076,0.277-1.25c-0.158-0.141-0.496-1.004-0.617-1.341
	L323.262,60.353z"/>
<polygon fill="#222222" points="224.189,45.672 236.62,48.582 242.33,25.438 "/>
<polygon fill="#222222" points="424.415,68.059 420.558,67.052 420.585,67.142 418.776,66.403 417.029,67.368 405.33,65.343 
	403.616,69.319 412.438,72.067 421.898,72.734 422.376,73.308 422.848,74.938 423.419,74.556 425.854,77.473 427.838,76.118 
	428.521,78.171 428.886,77.423 428.026,75.987 435.862,70.627 425.969,68.917 "/>
<polygon fill="#222222" points="613.184,65.546 610.914,58.301 608.929,62.793 608.901,62.864 612.701,65.613 "/>
<path fill="#222222" d="M600.711,73.279c-2.044-0.671-3.637-1.192-5.803-1.904C596.394,76.537,597.175,76.804,600.711,73.279z"/>
<path fill="#222222" d="M318.995,59.173c-1.615,0.794-1.654,1.066-0.285,2.023C318.811,60.484,318.886,59.93,318.995,59.173z"/>
<path fill="#222222" d="M322.739,61.11l2.19-3.287l-1.445-2.839c0,0-1.967,1.668-1.734,2.197c0.182,0.428,0.021,2.46-0.051,3.243
	L322.739,61.11z"/>
<path fill="#222222" d="M342.88,40.735c1.493-0.52,2.65-0.918,4.233-1.467C343.953,36.912,343.383,37.102,342.88,40.735z"/>
<polygon fill="#222222" points="448.864,13.98 448.032,13.844 446.886,15.584 447.284,15.885 "/>
<polygon fill="#222222" points="382.82,26.072 375.349,26.372 375.225,30.08 378.361,31.437 379.172,29.712 378.279,28.419 
	379.854,26.2 382.256,26.828 "/>
<polygon fill="#222222" points="318.434,64.578 321.529,68.885 319.367,70.228 323.166,74.966 323.69,76.841 326.192,75.518 
	327.767,70.442 328.363,70.337 319.873,62.656 "/>
<polygon fill="#222222" points="408.601,49.731 409.137,49.612 410.584,47.411 409.36,46.519 "/>
<polygon fill="#222222" points="407.35,49.538 406.683,50.155 407.297,50.02 "/>
<path fill="#222222" d="M570.762,79.757c-0.021,0.009-0.044,0.019-0.061,0.029c-0.04,0.027-0.1,0.055-0.172,0.075
	c-0.424,0.131-1.381,0.175-2.393,0.17l-0.863,1.438l1.833,4.31l3.646,0.729l3.602-3.46
	C576.354,83.048,571.614,79.493,570.762,79.757z"/>
<polygon fill="#222222" points="603.896,36.4 604.166,36.253 604.128,36.142 "/>
<path fill="#222222" d="M493.441,34.651c0,0-0.379,3.702,0.386,4.024c0.618,0.262,2.48,2.533,3.194,3.426l1.765-0.33l-1.008-5.617
	L493.441,34.651z"/>
<polygon fill="#222222" points="511.585,28.359 513.136,24.739 514.29,23.522 512.898,21.311 509.152,21.381 508.979,20.788 
	507.032,27.329 499.064,25.531 499.884,33.248 505.781,31.543 505.484,32.54 507.064,33.398 508.298,30.817 510.509,30.179 
	510.694,30.435 510.846,30.082 514.521,29.021 "/>
<polygon fill="#222222" points="534.225,45.862 533.224,45.51 533.635,46.041 533.703,46.071 "/>
<path fill="#222222" d="M550.727,52.765l-0.711-0.198l-1.431,2.18l0.276,2.458l1.926,1.429c0,0,0.719-4.042,0.423-4.337
	C551.097,54.194,550.896,53.517,550.727,52.765z"/>
<path fill="#222222" d="M550.609,52.668l0.714,0.199c-0.079-0.314-0.157-0.646-0.234-0.945L550.609,52.668z"/>
<polygon fill="#222222" points="532.611,52.406 531.877,51.538 530.793,54.489 530.24,55.137 530.998,56.184 532.895,56.005 
	533.006,56.294 534.458,50.266 533.651,49.899 "/>
<path fill="#222222" d="M417.707,44.71c0,0,0.298,0.39,0.691,0.931l1.375-1.824L417.707,44.71z"/>
<polygon fill="#222222" points="419.146,57.638 423.605,55.44 420.781,51.973 "/>
<path fill="#222222" d="M651.04,60.611l-0.553,6.286c0,0,5.058-0.734,5.229-1.861c0.145-0.908,2.543-4.146,3.494-5.397l-1.028-2.237
	L651.04,60.611z"/>
<path fill="#222222" d="M647.921,70.482l-0.646,0.429l-0.166,0.312c-0.188-0.754-0.375-1.509-0.562-2.228
	c-2.996,1.216-5.175,2.771-5.175,2.771l0.788-4.056l-9.702,2.616l0.734,1.273l12.974,2.159l1.661,1.826l0.612-6.841l-0.807,1.483
	C647.806,70.375,647.921,70.482,647.921,70.482z"/>
<path fill="#222222" d="M53.215,59.288l-0.296,1.048l-3.156,1.429c0.817-0.064,1.815-0.146,2.817-0.227l-2.227,7.878l10.37-7.123
	l1.022-3.025l-1.796-0.791L53.215,59.288z"/>
<polygon fill="#222222" points="68.986,70.658 77.002,70.142 77.677,68.179 77.708,67.461 77.894,67.543 79.93,61.494 
	69.563,68.632 "/>
<polygon fill="#222222" points="435.311,100.207 435.433,100.267 436.481,100.002 434.641,99.084 "/>
<path fill="#222222" d="M478.839,89.316l-2.405,0.863l-0.229-0.26l-0.859,4.225l1.827,2.207c0,0,2.098-3.779,1.821-4.213
	C478.822,91.885,478.817,90.469,478.839,89.316z"/>
<path fill="#222222" d="M466.337,117.027l1.3,0.602c-0.093-0.633-0.177-1.285-0.237-1.883L466.337,117.027z"/>
<polygon fill="#222222" points="431.738,112.232 430.531,110.304 427.892,115.722 426.71,116.824 427.95,119.111 431.581,119.324 
	431.743,119.908 435.694,108.644 434.2,107.685 "/>
<path fill="#222222" d="M466.05,95.902c-1.511,1.332-2.682,2.369-4.286,3.779C466.633,100.941,467.213,100.441,466.05,95.902z"/>
<path fill="#222222" d="M611.247,20.769c-0.207,0.108-1.312,0.015-2.218-0.084l0.503,1.938l-0.22,0.157l3.24,0.979l1.854-1.271
	C614.411,22.49,611.608,20.583,611.247,20.769z"/>
<path fill="#222222" d="M490.412,126.308c0,0,0.629-0.824,1.484-1.971l-2.779-2.799L490.412,126.308z"/>
<polygon fill="#222222" points="456.957,73.698 461.59,78.709 468.694,73.601 458.464,70.247 456.258,71.634 "/>
<path fill="#222222" d="M450.765,82.434c1.129,2.848,1.848,4.121,2.717,3.854c0.675-0.205,1.439-1.353,2.556-3.417
	C454.184,82.713,452.731,82.588,450.765,82.434z"/>
<path fill="#222222" d="M452.664,86.621c-0.188,0.339-1.617,1.288-2.174,1.65l0.083,1.052l3.325-0.26l1.13-2.44
	C455.03,86.621,452.897,86.188,452.664,86.621z"/>
<path fill="#222222" d="M444.795,26.59c-0.163,0.111-0.335,0.227-0.494,0.336l0.411,0.308L444.795,26.59z"/>
<polygon fill="#222222" points="316.625,56.894 315.69,57.353 315.747,58.159 314.278,58.588 313.261,57.594 312.744,57.73 
	316.599,59.906 317.792,58.417 "/>
<path fill="#222222" d="M520.793,80.764c0.602,1.188,1.071,2.107,1.71,3.367C524.114,81.221,523.886,80.768,520.793,80.764z"/>
<polygon fill="#222222" points="342.09,63.631 341.939,62.352 341.545,61.993 341.772,63.605 "/>
<path fill="#222222" d="M156.368,108.26c-0.268,1.557-0.476,2.766-0.764,4.413C159.195,111.048,159.304,110.452,156.368,108.26z"/>
<polygon fill="#222222" points="139.656,105.321 139.924,105.76 140.374,105.365 140.181,104.249 "/>
<path fill="#222222" d="M156.657,112.516l1.659,0.8c-0.558-0.352-1.128-0.704-1.666-1.039L156.657,112.516z"/>
<path fill="#222222" d="M121.076,97.427l-0.427-0.46l0.009,5.855l6.756,2.833l6.037-3.369c-1.725-1.509-3.805-3.179-4.323-3.003
	C128.195,99.594,121.076,97.427,121.076,97.427z"/>
<path fill="#222222" d="M176.35,41.948c-0.202,0.825-2.692,3.613-3.667,4.685l0.761,2.149l6.849-2.369l1.031-5.749
	C181.325,40.665,176.606,40.923,176.35,41.948z"/>
<path fill="#222222" d="M139.821,88.483l1.558,7.304c2.107-1.298,4.497-2.915,4.48-3.504c-0.019-1.065,4.486-7.727,4.486-7.727
	l0.608-0.297l-6.054-1.854L139.821,88.483z"/>
<path fill="#222222" d="M372.102,15.459c-0.314,1.288-4.193,5.636-5.722,7.306l1.189,3.354l10.683-3.699l1.604-8.965
	C379.857,13.456,372.501,13.859,372.102,15.459z"/>
<polygon fill="#222222" points="37.647,18.423 38.328,26.199 39.48,38.179 49.252,24.886 39.556,15.863 "/>
<polygon fill="#222222" points="562.079,43.458 564.694,51.995 564.866,58.624 571.032,53.354 "/>
<path fill="#222222" d="M364.799,91.183c-4.973-2.972-8.836-5.293-14.101-8.443C351.518,97.162,353.401,98.316,364.799,91.183z"/>
<path fill="#222222" d="M265.207,83.518l1.268-0.938l-8.895-4.525l-6.555,2.68l-2.774,7.721c0,0,11.431-0.309,12.048-1.543
	C260.6,86.317,262.896,84.868,265.207,83.518z"/>
<polygon fill="#222222" points="623.633,114.043 633.711,111.877 623.898,99.792 615.206,113.016 617.095,115.398 "/>
<polygon fill="#222222" points="196.179,122.733 198.27,133.677 216.159,129.722 204.2,127.043 "/>
<path fill="#222222" d="M113.13,53.263l1.297,0.604l3.145-3.816l-0.044-4.856l-3.375-3.372c0,0-2.17,7.631-1.665,8.293
	C112.698,50.373,112.936,51.748,113.13,53.263z"/>
<polygon fill="#222222" points="25.261,142.922 35.449,132.51 34.111,129.758 27.859,129.347 18.218,128.786 "/>
<path fill="#222222" d="M333.32,71.455c0.463-0.57,5.803-2.027,5.803-2.027l2.569,0.705l4.45-1.799l-5.438-3.039l-11.422,1.9
	l-2.33,3.646C326.953,70.842,332.861,72.013,333.32,71.455z"/>
</svg>
