<?xml version="1.0" encoding="utf-8"?>
<!-- Generator: Adobe Illustrator 16.0.0, SVG Export Plug-In . SVG Version: 6.00 Build 0)  -->
<!DOCTYPE svg PUBLIC "-//W3C//DTD SVG 1.1//EN" "http://www.w3.org/Graphics/SVG/1.1/DTD/svg11.dtd">
<svg version="1.1" id="Layer_1" xmlns="http://www.w3.org/2000/svg" xmlns:xlink="http://www.w3.org/1999/xlink" x="0px" y="0px"
	 width="669.5px" height="194.984px" viewBox="0 0 669.5 194.984" enable-background="new 0 0 669.5 194.984" xml:space="preserve">
<polygon fill="#222222" points="226.389,13.962 225.832,14.836 225.465,15.174 226.904,15.037 "/>
<polygon fill="#222222" points="236.112,26.994 236.02,27.916 237.805,28.922 "/>
<polygon fill="#222222" points="589.251,17.296 590.705,13.244 587.784,13.414 "/>
<polygon fill="#222222" points="468.51,55.688 468.382,56.344 469.878,56.363 470.664,54.198 470.661,54.179 "/>
<polygon fill="#222222" points="466.817,55.708 467.146,55.718 467.081,55.522 "/>
<path fill="#222222" d="M495.819,57.569l-0.45,0.101l0.117-0.887c0,0-1.171,0.121-1.222,0.379c-0.029,0.146-0.342,0.561-0.6,0.883
	l-8.152,1.798l10.528,3.098L495.819,57.569z"/>
<path fill="#222222" d="M275.135,48.988l-3.099-3.44l-2.667,2.509l-1.178,10.87l1.591-0.375c-0.132-5.171,1.929-3.876,2.693-4.775
	l-0.388-2.387L275.135,48.988z"/>
<path fill="#222222" d="M340.272,73.785c1.98,2.43,3.522,4.312,5.622,6.877C348.125,73.17,347.375,72.238,340.272,73.785z"/>
<path fill="#222222" d="M352.602,64.892c1.574,0.155,2.793,0.273,4.457,0.438C355.175,61.871,354.575,61.805,352.602,64.892z"/>
<path fill="#222222" d="M367.251,72.918l-0.463,0.627l0.725,0.98l0.985-0.619l2.069,2.186c0.053-0.521,0.101-0.893,0.119-0.879
	c0.022,0.015,0.556,0.3,1.227,0.65l0.999-7.59l-9.352,2.429L367.251,72.918z"/>
<polygon fill="#222222" points="370.337,60.36 371.525,59.209 369.159,57.19 368.334,58.844 "/>
<path fill="#222222" d="M400.148,59.474c0.902,1.103,1.61,1.958,2.565,3.13C403.727,59.184,403.384,58.76,400.148,59.474z"/>
<polygon fill="#222222" points="548.808,59.189 551.315,52.849 543.796,59.923 "/>
<path fill="#222222" d="M443.739,42.884c-0.511,0.155-1.213,0.741-2.206,1.705c1.293,0.729,2.288,1.301,3.648,2.087
	C444.956,43.753,444.672,42.597,443.739,42.884z"/>
<path fill="#222222" d="M236.044,64.427c-0.804,0.246-1.344,1.736-2.047,4.613c1.991-0.623,3.536-1.128,5.632-1.801
	C237.898,65.166,236.842,64.183,236.044,64.427z"/>
<path fill="#222222" d="M546.278,4.503c0.013,0,0.019,0.002,0.022,0.004l-3.325-2.521C543.888,3.232,545.161,4.407,546.278,4.503z"
	/>
<path fill="#222222" d="M561.438-7.934c-0.555-0.764-1.42-1.688-2.105-1.672c-1.708,0.042-3.42,0.125-5.131,0.191l-0.151,0.173
	l5.225,2.371L561.438-7.934z"/>
<path fill="#222222" d="M554.188,8.26l6.23-1.467l-6.689-4.834l-0.179-0.068l-2.809,2.28l-0.05,1.417
	C552.109,6.226,553.249,7.131,554.188,8.26z"/>
<path fill="#222222" d="M548.459,12.754c0.316,0,0.625-0.002,0.956-0.005l-0.528-0.501L548.459,12.754z"/>
<path fill="#222222" d="M566.798,14.752l-0.985-1.374l-2.007-2.031v-0.478c0-0.033,1.733-0.203,2.066-0.423l-11.821-1.538
	c0.073,0.104,0.344,0.221,0.415,0.329l-1.564,3.889l4.893,2.652c0.339,0.329,0.765,0.627,1.175,0.873l-0.029,0.531l0.544,0.298
	l0.227-0.477c0.297,0.119,0.589,0.205,0.847,0.221c2.532,0.145,5.107,0.185,7.898,0.185l-1.05-3.197L566.798,14.752z"/>
<path fill="#222222" d="M398.053,109.043l0.508,0.948c0.871-0.224,1.568-0.45,1.642-0.63c0.058-0.133,0.376-0.405,0.807-0.729
	l-1.471-1.652L398.053,109.043z"/>
<polygon fill="#222222" points="474.439,52.723 474.625,53.01 474.564,52.734 "/>
<polygon fill="#222222" points="475.155,55.416 476.276,55.577 474.625,53.01 "/>
<polygon fill="#222222" points="467.136,50.391 467.229,54.194 469.809,54.028 470.913,52.44 474.439,52.723 471.699,48.469 "/>
<path fill="#222222" d="M226.534,55.333l2.009,3.292l2.507-3.47l-0.64-1.826c-1.347,0.234-2.426,0.512-2.562,0.825
	C227.741,54.389,227.228,54.825,226.534,55.333z"/>
<path fill="#222222" d="M164.09,79.162c-0.118,0.228-0.652,0.637-1.371,1.108l1.841,3.394l2.681-3.344l-0.553-1.856
	C165.334,78.632,164.242,78.854,164.09,79.162z"/>
<polygon fill="#222222" points="157.381,85.38 160.292,81.917 156.153,85.049 "/>
<path fill="#222222" d="M96.926,50.832l2.446-2.352c0,0-3.213-2.417-3.795-2.237c-0.017,0.005-0.032,0.013-0.041,0.022
	c-0.03,0.021-0.071,0.04-0.125,0.057c-0.292,0.09-0.927,0.121-1.61,0.123l-0.588,0.966l1.248,2.932L96.926,50.832z"/>
<polygon fill="#222222" points="82.687,65.222 84.448,67.675 83.209,68.441 85.379,71.15 85.688,72.211 87.1,71.456 88.004,68.571 
	88.348,68.516 83.497,64.127 "/>
<polygon fill="#222222" points="105.618,79.594 107.144,81.5 108.381,80.735 106.608,78.275 "/>
<path fill="#222222" d="M203.859,34.682l5.187-3.397l0.409-4.103c0,0-5.991,1.685-6.148,2.417c-0.093,0.421-1.522,1.859-2.731,3.015
	l3.31,1.579L203.859,34.682z"/>
<path fill="#222222" d="M232.845,22.045l0.202-3.167c0,0-4.212,1.341-4.308,1.862c-0.096,0.527-3.008,3.354-3.008,3.354
	l-1.907,0.459l-2.22,2.733l4.572,0.025L232.845,22.045z"/>
<polygon fill="#222222" points="246.121,28.463 245.994,28.445 245.125,29.049 247.104,29.259 "/>
<polygon fill="#222222" points="210.136,117.331 210.472,118.772 211.192,118.763 210.865,116.968 "/>
<path fill="#222222" d="M248.305,31.326c0.043,0.847-1.521,4.245-2.143,5.548l1.364,1.838l5.853-4.271l-0.699-5.796
	C252.684,28.644,248.248,30.266,248.305,31.326z"/>
<path fill="#222222" d="M289.58,49.663c2.797,0.763,4.961,1.354,7.923,2.161C295.162,44.99,294.096,44.684,289.58,49.663z"/>
<path fill="#222222" d="M127.614,80.741l-0.258-1.671l-9.142-4.516c-0.027,1.128-0.054,2.203-0.07,3.346
	c2.176-0.271,3.884-0.289,3.884-0.289l-1.234,3.13H127.614z"/>
<path fill="#222222" d="M129.66,104.297l-0.184,0.467l5.998-1.576l1.689-3.764c0,0-2.663-0.132-4.609-0.04
	c0.574-0.904,1.108-2.312,1.721-4.283c-1.569,0.271-2.965,0.513-4.384,0.756l0.496-3.472l1.117,0.102l-0.611-1.228l-0.358,0.102
	l0.152-1.061l-3.255,1.183l-1.785-1.556c0,0-0.264,1.143-0.502,2.387l-2.894,1.053l2.51,1.718c0.002,0.169,0.023,0.289,0.064,0.337
	c0.144,0.155,0.347,1.053,0.519,2.015l0.878,0.331l0.186-0.252c1.437,1.436,2.538,2.365,3.437,2.795
	c-0.717,0.428-1.832,0.977-2.822,1.442L129.66,104.297z"/>
<path fill="#222222" d="M505.072,60.715c-0.157-0.15-0.301-0.694-0.426-1.396l-3.742,0.673l1.848,3.018l1.871-0.003
	C505.029,61.856,505.277,60.912,505.072,60.715z"/>
<path fill="#222222" d="M203.571,118.868c-0.302-0.004-0.916-0.207-1.641-0.492l-2.952-1.927l-0.333,0.478
	c-0.553-0.262-1.047-0.505-1.399-0.679l-2.094,1.167l2.484,3.138l-1.21,1.196l-2.443-1.106l-0.74,0.696l5.599,0.741l0.138,0.174
	c0.109,2.146,0.804,2.785,2.448,2.28c0.599-0.183,1.332-0.526,2.199-0.991l3.045-0.062
	C206.67,123.479,204.783,118.91,203.571,118.868z"/>
<path fill="#222222" d="M124.76,98.46l0.661-0.882l-0.878-0.329C124.622,97.657,124.7,98.077,124.76,98.46z"/>
<polygon fill="#222222" points="187.711,77.964 187.634,78.048 187.867,78.209 "/>
<polygon fill="#222222" points="184.544,82.985 184.893,83.188 185.126,82.669 184.625,81.959 "/>
<polygon fill="#222222" points="231.148,105.196 230.784,108.343 232.527,108.602 233.435,107.459 235.821,108.26 235.91,110.552 
	236.732,110.848 234.461,104.315 "/>
<path fill="#222222" d="M311.892,53.192c0.761-0.249,1.349-0.45,2.15-0.708C312.232,51.408,311.942,51.5,311.892,53.192z"/>
<polygon fill="#222222" points="231.662,2.776 228.336,1.07 228.286,1.048 226.028,3.808 226.057,4.176 "/>
<polygon fill="#222222" points="246.577,22.703 243.259,25.78 243.958,26.051 247.284,24.653 "/>
<polygon fill="#222222" points="255.336,24.353 255.624,24.009 254.793,24.137 "/>
<polygon fill="#222222" points="251.304,21.469 251.349,21.427 249.418,18.427 249.056,18.346 248.659,24.106 "/>
<path fill="#222222" d="M234.72,83.608c0,0-11.383-1.082-12.145,0.072c-0.372,0.552-2.825,1.717-5.283,2.769
	c-0.522,0.224-1.044,0.454-1.543,0.661l0.172,0.113l8.275,5.577l6.829-1.86L234.72,83.608z"/>
<polygon fill="#222222" points="355.353,50.415 349.376,58.295 357.055,52.418 "/>
<polygon fill="#222222" points="206.938,76.427 204.109,80.631 208.892,76.733 "/>
<polygon fill="#222222" points="138.827,83.799 139.635,80.79 138.079,80.316 "/>
<polygon fill="#222222" points="199.199,79.943 201.282,81.058 199.825,78.957 "/>
<polygon fill="#222222" points="512.333,59.059 514.914,63.248 515.689,61.766 513.156,58.505 "/>
<polygon fill="#222222" points="179.307,85.988 178.494,88.494 179.91,89.026 179.788,85.73 "/>
<polygon fill="#222222" points="181.049,85.583 181.53,84.812 180.973,85.107 "/>
<path fill="#222222" d="M190.319,84.211l-4.433-4.392l0.093,1.295l-0.457-0.421c-0.185,0.122-0.313,0.205-0.313,0.205l-0.081-0.234
	l0.39-5.835l-0.717-1.121l-0.736,0.78l-1.568,3.655l0.12,0.164l-0.308,0.16l-0.476-0.646l-0.495,1.162l-1.056,0.558l0.711,0.25
	l-0.254,0.602l3.581,1.955l0.082-1.026l-0.325-0.442l0.575,0.205l0.41,0.559l0.027-0.404l0.925,0.326l0.165,2.275l0.004,0.062
	l3.821,0.538L190.319,84.211z"/>
<polygon fill="#222222" points="653.284,52.698 654.618,51.702 653.582,49.059 652.148,49.361 "/>
<polygon fill="#222222" points="162.584,86.555 163.652,83.578 161.281,86.118 "/>
<path fill="#222222" d="M175.216,71.205l-5.35,5.722l1.92,6.016c0,0,4.375-2.631,4.108-3.741c-0.223-0.891,0.742-4.809,1.131-6.328
	L175.216,71.205z"/>
<path fill="#222222" d="M103.4,69.363l6.711,0.834l-1.43-0.834c-0.153,0.157-0.26,0.27-0.26,0.27l-0.394-0.649l-2.468-1.444
	L103.4,69.363z"/>
<polygon fill="#222222" points="270.323,20.585 270.522,22.606 268.856,23.431 268.905,24.135 272.983,20.307 271.239,18.15 
	268.794,18.922 269.182,20.294 "/>
<path fill="#222222" d="M258.937,29.76c5.464,2.043,6.204,1.535,5.411-3.841C262.437,27.272,260.956,28.324,258.937,29.76z"/>
<path fill="#222222" d="M102.197,93.852h-7.262l0.273-0.236l9.729,3.796c0.03-1.208,0.055-2.853,0.075-4.062
	c-2.32,0.283-4.132,2.07-4.132,2.07L102.197,93.852z"/>
<polygon fill="#222222" points="399.936,95.162 399.408,97.922 400.95,96.01 "/>
<polygon fill="#222222" points="115.496,86.568 114.42,85.971 112.854,89.256 111.935,87.997 110.272,91.884 109.48,92.715 
	110.433,94.225 112.983,94.181 112.255,94.575 112.695,90.226 112.695,90.622 116.425,89.017 114.31,89.109 "/>
<path fill="#222222" d="M476.767,55.504c0,0,1.693,2.271,2.03,2.218c0.195-0.029,1.039,0.348,1.729,0.671l0.134-1.67l0.214-0.066
	l-2.301-1.654L476.767,55.504z"/>
<polygon fill="#222222" points="229.179,17.645 229.069,17.755 229.101,17.808 "/>
<polygon fill="#222222" points="376.071,64.713 375.345,65.394 375.948,67.453 "/>
<polygon fill="#222222" points="374.154,69.185 375.208,68.64 374.004,68.714 "/>
<polygon fill="#222222" points="368.188,64.197 368.407,54.936 363.225,64.138 "/>
<polygon fill="#222222" points="369.975,68.963 370.324,68.318 369.914,68.54 369.891,68.584 "/>
<polygon fill="#222222" points="187.933,128.227 187.897,128.294 190.935,131.15 191.368,131.143 190.195,124.496 "/>
<path fill="#222222" d="M219.992,114.609l-1.459,0.985c0,0,1.56,1.759,1.849,1.673c0.004-0.002,0.007-0.004,0.011-0.007
	c0.003,0,0.009-0.004,0.013-0.004c0.125-0.038,0.515,0.021,0.925,0.117l0.39-0.457l-0.448-1.745L219.992,114.609z"/>
<polygon fill="#222222" points="311.088,47.26 312.595,49.098 314.959,51.904 315.623,45.842 311.224,46.08 "/>
<polygon fill="#222222" points="279.514,48.946 276.312,44.909 277.119,49.339 "/>
<polygon fill="#222222" points="407.942,23.067 412.677,21.426 411.312,19.99 "/>
<path fill="#222222" d="M360.008,5.608l0.813,1.873c0.313-0.033,0.543-0.11,0.543-0.11l-0.18,1.644l1.401,4.719h4.141L360.008,5.608
	z"/>
<path fill="#222222" d="M439.174,64.651c-0.029,0.924-2.042,4.415-2.835,5.771l1.28,2.104l6.717-4.023l-0.186-6.312
	C444.15,62.187,439.218,63.51,439.174,64.651z"/>
<polygon fill="#222222" points="391.003,57.01 390.639,60.848 390.884,61.159 395.072,56.537 391.068,57.003 "/>
<path fill="#222222" d="M376.989,114.922c0.024,0.353-0.735,1.744-1.403,2.881l2.845,0.459l0.091,0.38l3.16-3.703l-0.586-3.164
	C381.092,111.775,376.935,114.34,376.989,114.922z"/>
<path fill="#222222" d="M353.232,126.924c0.501,0.429,1.562,3.168,1.952,4.228l1.787,0.242l0.777-5.646l-3.644-2.768
	C354.106,122.978,352.604,126.373,353.232,126.924z"/>
<path fill="#222222" d="M474.123,13.912c0,0-1.836,7.917-1.283,8.548c0.221,0.256,0.533,1.642,0.815,3.157l1.352,0.512l3.044-4.125
	l-0.297-4.949L474.123,13.912z"/>
<path fill="#222222" d="M472.737,27.214l1.023-1.377l-1.353-0.51C472.526,25.951,472.639,26.612,472.737,27.214z"/>
<polygon fill="#222222" points="542.071,-4.839 539.788,-0.039 541.707,1.022 543.414,-2.999 "/>
<polygon fill="#222222" points="567.7,0.162 567.82,0.036 565.585,-3.49 564.87,7.137 565.673,8.231 568.788,1.571 568.069,0.422 
	"/>
<polygon fill="#222222" points="563.896,9.321 563.778,9.464 564.135,9.71 "/>
<path fill="#222222" d="M460.246,47.613c-0.1,0.031-0.167,0.071-0.202,0.123c-0.145,0.229-0.901,0.646-1.748,1.057l-0.304,1.235
	l2.24,2.213l2.729-0.809l1.785-3.509C464.747,47.925,461.184,47.327,460.246,47.613z"/>
<path fill="#222222" d="M543.718,61.593l0.229,2.455l-0.293,0.149l3.744,1.822l2.503-1.175c0,0-3.029-2.876-3.508-2.711
	C546.119,62.219,544.801,61.891,543.718,61.593z"/>
<polygon fill="#222222" points="583.714,7.815 584.398,-2.382 583.278,-4.136 582.123,-2.918 579.693,2.791 583.483,7.984 
	581.521,9.42 582.591,10.992 584.162,10.879 585.274,13.358 583.521,15.108 583.883,15.981 587.413,9.39 584.281,7.402 "/>
<path fill="#222222" d="M376.367,62.91c1.05-0.94,1.985-1.787,2.927-2.632l0.719-0.443l-0.007-0.196
	c0.928-0.834,1.875-1.688,2.954-2.662C375.382,55.107,374.479,55.902,376.367,62.91z"/>
<polygon fill="#222222" points="602.28,8.878 597.686,8.871 601.216,13.242 608.239,7.228 "/>
<polygon fill="#222222" points="194.754,64.05 197.54,74.831 215.148,69.74 203.039,67.832 "/>
<polygon fill="#222222" points="520.697,9.452 521.654,9.901 521.903,7.172 520.812,7.244 "/>
<path fill="#222222" d="M443.282,42.308c0,0,1.45,0.885,1.736,0.627c0.229-0.199,1.531-0.521,2.038-0.636l0.212-0.79l-2.51-0.696
	L443.282,42.308z"/>
<polygon fill="#222222" points="477.284,-0.701 478.3,-0.271 478.307,-2.673 477.95,-2.503 "/>
<polygon fill="#222222" points="487.902,57.81 487.03,58.125 486.968,58.2 487.016,58.966 "/>
<polygon fill="#222222" points="479.229,-2.746 479.598,-3.293 479.19,-3.094 "/>
<polygon fill="#222222" points="452.404,36.058 454.087,37.607 454.711,36.431 453.287,35.264 "/>
<polygon fill="#222222" points="460.1,30.44 462.723,28.033 458.558,27.355 457.729,28.008 458.089,28.776 "/>
<polygon fill="#222222" points="459.47,24.878 457.154,22.765 456.622,23.19 456.476,23.406 456.441,23.338 454.791,24.662 
	458.945,25.363 "/>
<polygon fill="#222222" points="460.62,26.023 460.664,26.083 460.802,25.873 "/>
<polygon fill="#222222" points="463.492,28.608 462.865,28.49 460.24,30.898 461.663,32.067 "/>
<path fill="#222222" d="M468.848,15.608h1.296l-0.226-2.292c0.084-0.125,0.169-0.557,0.253-0.677l-0.312-0.232l-0.113-0.911
	L455.48,4.232c-0.042,1.761-0.087,3.334-0.109,5.111c3.4-0.422,6.051,0.464,6.051,0.464l-1.919,5.8h4.639l-0.302-0.314l0.339,2.925
	c0,0,4.351-1.775,4.356-2.368C468.539,15.73,468.673,15.608,468.848,15.608z"/>
<path fill="#222222" d="M455.277,26.51c-2.264-0.302-4.014-0.541-6.411-0.86C451.405,30.739,452.276,30.866,455.277,26.51z"/>
<path fill="#222222" d="M517.944-12.042l-0.048-0.386l-3.479,3.437l0.337,3.229c0,0,4.354-2.235,4.364-2.826
	c0-0.338,0.884-1.674,1.63-2.749L517.944-12.042z"/>
<polygon fill="#222222" points="654.562,109.241 655.188,107.15 650.395,105.6 "/>
<path fill="#222222" d="M345.59,135.635l-1.99,5.033l2.679,0.445c0,0-1.079,0.914-1.961,2.377c1.051,0.6,2.208,1.258,3.255,1.848
	l-1.162-8.983L345.59,135.635z"/>
<polygon fill="#222222" points="349.812,116.578 350.576,117.914 350.413,116.238 "/>
<path fill="#222222" d="M629.244,29.114l6.815,28.844l7.035-4.41l0.415,1.133l1.948,0.321c0,0-0.111-1.6-0.461-1.681
	c-0.137-0.033-0.437-0.247-0.748-0.5l4.112-2.577L629.244,29.114z"/>
<polygon fill="#222222" points="506.847,70.426 507.158,73.088 507.912,71.565 507.895,71.379 "/>
<path fill="#222222" d="M504.351,58.344c1.375,0.381,2.441,0.674,3.901,1.083C507.112,56.049,506.584,55.899,504.351,58.344z"/>
<path fill="#222222" d="M370.346,125.211l-1.127,0.025l0.077,3.58l2.541,1.348c0,0,0.585-2.256,0.141-2.526
	C371.628,127.414,370.695,125.826,370.346,125.211z"/>
<polygon fill="#222222" points="360.358,4.537 361.464,4.635 359.993,3.129 360.262,4.439 "/>
<path fill="#222222" d="M405.156,11.307c-0.08-0.294,0.389-1.665,0.798-2.769l-2.612,0.019l-0.131-0.32l-2.245,3.79l1.024,2.746
	C401.988,14.774,405.286,11.823,405.156,11.307z"/>
<polygon fill="#222222" points="348.177,138.142 348.268,137.976 347.834,137.816 "/>
<polygon fill="#222222" points="362.835,131.615 368.517,136.732 369.587,131.842 362.631,129.812 "/>
<polygon fill="#222222" points="351.134,128.379 350.871,129.322 351.939,130.273 351.781,128.549 "/>
<path fill="#222222" d="M408.661,15.549c-1.909,0.769-3.384,1.386-5.412,2.202C407.531,20.609,408.259,20.307,408.661,15.549z"/>
<path fill="#222222" d="M334.079,121.685c0.631,3.062,1.121,5.446,1.78,8.7C341.31,124.791,341.083,123.607,334.079,121.685z"/>
<path fill="#222222" d="M279.55,58.992c-0.468,0.029-2.381-1.043-3.93-1.966l-0.687,3.9l-0.527,0.113l5.046,4.421l4.389-0.767
	C283.841,64.697,280.354,58.944,279.55,58.992z"/>
<polygon fill="#222222" points="551.258,9.182 552.562,8.258 550.058,5.54 549.677,4.424 548.175,5.363 547.349,8.545 546.984,8.64 
	552.481,12.907 553.31,11.668 "/>
<polygon fill="#222222" points="495.146,72.904 495.361,72.623 495.097,72.797 "/>
<path fill="#222222" d="M554.868,77.398l-0.004,0.062l3.465,2.409l-3.262,2.309l0.055,1.216c0,0,6.12-4.143,6.179-5.16
	c0.022-0.595,1.363-3.024,2.477-4.954l-5.978,0.104L554.868,77.398z"/>
<polygon fill="#222222" points="462.979,58.106 463.649,58.392 463.796,56.5 463.029,56.563 "/>
<path fill="#222222" d="M462.199,62.42l0.066-0.117l-0.845-4.182c0,0-4.326,4.332-4.251,5.113c0.046,0.464-0.691,2.508-1.328,4.167
	l3.113,0.063l0.113,0.488l2.395-4.231l1.211-0.366l0.382-0.947C463.059,62.405,462.621,62.4,462.199,62.42z"/>
<path fill="#222222" d="M482.625,74.697l2.254-2.171c0,0-0.498-0.295-1.176-0.719L482.625,74.697z"/>
<polygon fill="#222222" points="488.897,68.941 487.359,69.902 488.411,70.247 487.045,73.909 492.388,71.873 492.723,71.651 
	492.893,71.706 493.657,71.148 493.597,71.075 496.115,69.418 490.121,65.659 "/>
<path fill="#222222" d="M456.192,59.071c-0.159-0.09-0.589-1.006-0.909-1.771l-0.1,0.15l-0.828-1.438l-0.422-0.056l0.267,2.553
	l0.249,0.056l-0.223,0.336l-0.194-0.079l0.784,3.121l1.654,0.65C456.469,62.594,456.486,59.228,456.192,59.071z"/>
<polygon fill="#222222" points="451.433,55.73 448.049,56.382 448.014,57.164 449.507,57.247 449.193,58.112 450.936,58.086 
	451.38,58.337 451.771,57.4 451.307,55.908 "/>
<path fill="#222222" d="M403.229,95.51l-1.175-0.707l0.083-0.463l2.158-0.251l-2.042-1.997c0.033-0.057,0.073-0.116,0.069-0.153
	c-0.034-0.231,0.42-1.241,0.81-2.062l-1.993-0.169l-0.079-0.26l-0.629,0.861l-0.152-0.149l-6.271,6.795l5.729-2.334l2.264-0.264
	l0.312,2.706l1.871-0.081l0.563-1.63l-0.899-0.343L403.229,95.51z"/>
<polygon fill="#222222" points="527.879,54.531 527.718,53.949 526.53,52.478 524.531,53.724 527.259,54.86 "/>
<polygon fill="#222222" points="526.39,56.301 527.736,58.139 528.133,57.926 528.252,57.796 528.271,57.852 529.511,57.196 
	526.794,56.039 "/>
<polygon fill="#222222" points="525.568,55.518 525.709,55.443 525.691,55.385 "/>
<path fill="#222222" d="M207.302,111.651c0.399,2.638,0.708,4.683,1.129,7.482C212.282,113.93,212.153,112.908,207.302,111.651z"/>
<path fill="#222222" d="M196.971,111.01l-1.909-2.437l0.67,3.784C195.732,112.359,196.256,111.783,196.971,111.01z"/>
<polygon fill="#222222" points="110.822,113.354 113.07,114.364 110.812,112.659 "/>
<polygon fill="#222222" points="130.152,108.619 128.724,110.815 131.671,110.266 132.14,109.629 131.778,109.231 "/>
<polygon fill="#222222" points="134.836,108.875 136.749,109.692 137.047,109.292 137.111,109.105 137.156,109.151 138.079,107.884 
	135.129,108.43 "/>
<polygon fill="#222222" points="130.411,111.76 130.518,111.619 130.477,111.584 "/>
<polygon fill="#222222" points="127.543,110.582 127.781,110.677 128.061,110.236 127.622,110.309 "/>
<path fill="#222222" d="M390.132,120.283c1.231-0.175,2.222-0.361,2.987-0.598c2.785-0.854,2.627-2.367,0.508-6.639
	C392.393,115.598,391.436,117.586,390.132,120.283z"/>
<path fill="#222222" d="M388.515,89.484c0,0,1.092-6.13,0.639-6.562c-0.069-0.066-0.152-0.254-0.244-0.516l0.051,0.025l-0.371-1.133
	c-0.168-0.641-0.341-1.38-0.492-2.062l-0.139,0.143l-0.995-3.024l-0.739-0.312l-0.338,4.788l0.424,0.228l-0.554,0.564l-0.339-0.221
	l0.4,6.074L388.515,89.484z"/>
<polygon fill="#222222" points="394.011,107.169 399.391,105.707 400.17,104.481 399.471,103.802 396.41,102.979 "/>
<polygon fill="#222222" points="392.698,106.727 393.503,106.495 395.902,102.306 393.756,101.716 "/>
<polygon fill="#222222" points="392.754,106.135 391.948,106.367 391.848,106.844 392.278,106.989 "/>
<path fill="#222222" d="M389.924,97.159c0,0-2.805,1.749-4.303,2.983l-0.93-0.834l-4.893-4.313l-0.019,11.107l4.561-1.021
	l2.203,0.359l0.105,0.485l4.032-4.718L389.924,97.159z"/>
<polygon fill="#222222" points="241.052,126.204 239.812,124.783 240.303,124.445 240.047,123.984 240.285,123.804 239.704,122.965 
	239.996,122.522 238.151,122.422 237.113,122.711 238.235,121.626 239.041,120.995 239.209,120.062 235.898,121.001 
	229.442,115.472 228.999,119.446 230.075,119.272 229.422,120.027 230.2,121.915 229.657,122.052 229.776,122.601 229.526,122.677 
	229.846,123.735 229.464,124.052 231.129,124.882 232.157,125.032 230.85,125.632 229.951,125.923 229.863,126.104 240.275,131.76 
	241.102,126.868 240.602,127.161 "/>
<path fill="#222222" d="M245.013,11.584c1.406-0.004,2.5-0.013,3.997-0.013C247.023,8.664,246.487,8.664,245.013,11.584z"/>
<polygon fill="#222222" points="334.908,61.668 340.298,61.587 341.672,62.37 342.885,59.454 341.462,54.85 341.852,54.283 
	331.345,56.318 331.255,58.748 335.877,58.997 "/>
<path fill="#222222" d="M46.933,63.04l1.47-0.068c-0.09-0.188-0.168-0.349-0.234-0.485L46.933,63.04z"/>
<polygon fill="#222222" points="584.345,72.315 582.713,68.205 572.691,73.777 578.007,73.978 576.869,83.268 "/>
<polygon fill="#222222" points="433.743,32.215 440.56,30.287 442.254,17.36 441.615,17.208 439.304,16.753 440.32,22.472 
	435.95,21.447 436.36,28.745 433.526,31.298 "/>
<path fill="#222222" d="M411.722,51.695l1.682,1.083l-0.054,0.267l3.044-1.478l0.508-2.191c0,0-3.354,0.494-3.492,0.88
	C413.326,50.477,412.453,51.154,411.722,51.695z"/>
<path fill="#222222" d="M424.405,30.572l0.003-0.064l-3.344-3.137l3.623-1.913l0.071-1.299c0,0-6.79,3.391-6.954,4.459
	c-0.083,0.625-1.739,2.998-3.084,4.86l6.21,0.871L424.405,30.572z"/>
<path fill="#222222" d="M401.939,44.898c1.474,0.56,2.622,0.992,4.188,1.586C405.212,42.652,404.65,42.43,401.939,44.898z"/>
<path fill="#222222" d="M635.989,74.353c-0.316,0.382-2.217,1.057-4.115,1.652l-1.068,0.47l5.698,4.743l5.189-0.864l3.285-5.137
	C644.977,75.219,636.641,73.561,635.989,74.353z"/>
<polygon fill="#222222" points="431.222,98.094 431.925,96.468 431.778,96.422 "/>
<polygon fill="#222222" points="466.938,99.055 469.375,98.677 466.84,98.238 "/>
<polygon fill="#222222" points="464.171,97.775 466.84,98.238 466.587,96.124 "/>
<path fill="#222222" d="M348.223,157.07c0,0-2.26,8.492-1.695,9.199c0.339,0.403,0.763,3.248,1.058,5.549l4.569-5.732l-0.126-5.389
	L348.223,157.07z"/>
<polygon fill="#222222" points="185.601,102.197 186.429,101.935 185.972,101.326 "/>
<path fill="#222222" d="M181.831,38.88c-0.708,0.035-1.561,0.083-2.434,0.154l-2.545,2.277l-4.672,5.385l1.714,0.712l7.608-3.117
	l0.918-2.541l-1.31-1.302L181.831,38.88z"/>
<polygon fill="#222222" points="243.368,47.786 239.781,50.272 244.87,52.045 245.985,51.377 245.638,50.329 "/>
<polygon fill="#222222" points="77.018,63.323 77.077,63.256 77.077,62.546 76.197,63.561 "/>
<path fill="#222222" d="M76.583,61.988l1.699-0.798c0,0-2.057-1.95-2.379-1.84c-0.189,0.061-1.085-0.163-1.816-0.368l0.155,1.67
	l-0.199,0.101L76.583,61.988z"/>
<path fill="#222222" d="M130.276,53.506c-0.028,0.022-0.073,0.041-0.128,0.058c-0.293,0.09-0.937,0.125-1.622,0.125l-0.586,0.966
	l1.248,2.932l2.483,0.488l2.446-2.337c0,0-3.214-2.429-3.798-2.252C130.302,53.491,130.289,53.499,130.276,53.506z"/>
<path fill="#222222" d="M169.468,36.219l-0.113,1.836l0.896,3.353h2.656l-4.308-5.491l0.521,1.059
	C169.32,36.952,169.468,36.219,169.468,36.219z"/>
<path fill="#222222" d="M451.233,25.705l-0.064-1.775l3.362-5.667l3.315-0.745l-0.24-5.546c-0.935-0.787-1.84-1.564-1.8-1.581
	c0.037-0.016,0.803-0.408,1.692-0.869l-0.377-1.368c0,0-6.938,7.366-11.275,9.768l3.714,8.924L451.233,25.705z"/>
<polygon fill="#222222" points="308.345,56.391 307.416,58.723 307.593,58.45 312.13,55.732 308.4,56.391 "/>
<path fill="#222222" d="M231.56,53.032c0.124,0.155,0.23,1.074,0.304,1.833l1.505-0.739l0.164,0.152l0.252-2.819l-1.348-1.304
	C232.439,50.155,231.342,52.775,231.56,53.032z"/>
<path fill="#222222" d="M367,51.481c-0.477-1.125-0.932-2.227-0.887-2.224c0.033,0.005,0.896-0.001,1.902-0.007l0.28-1.389
	c0,0-9.521,3.421-14.477,3.594l-0.734,9.636l2.005-0.256l0.747-1.611l1.969-1.25l4.633-0.325l0.054-0.741l2.162,0.883l2.155,0.28
	l-1.291-3.344l0.729-1.602L367.545,56l1.873-3.517l-3.102,0.49L367,51.481z M361.406,55.694l1.306,0.335l-0.229,0.185l-4.62,1.728
	L361.406,55.694z"/>
<path fill="#222222" d="M342.844,67.31l-1.438-0.263l0.539,1.637c-0.219-0.071-0.418-0.139-0.646-0.21
	c1.771,6.146,2.695,6.46,6.909,2.259c-1.96-0.643-3.587-1.173-5.489-1.794L342.844,67.31z"/>
<polygon fill="#222222" points="324.719,55.818 324.679,55.78 324.227,55.73 324.859,56.284 "/>
<path fill="#222222" d="M428.393,77.584c-0.63-0.343-1.125-0.604-1.796-0.97C426.779,78.403,427.019,78.535,428.393,77.584z"/>
<polygon fill="#222222" points="250.796,49.802 252.294,52.552 251.008,53.129 252.866,56.166 253.059,57.28 254.539,56.749 
	255.708,53.985 256.045,53.974 251.707,48.829 "/>
<polygon fill="#222222" points="152.534,52.332 152.75,52.096 152.777,52.195 155.055,50.989 150.073,48.893 149.333,49.35 
	151.796,52.725 "/>
<polygon fill="#222222" points="352.865,66.063 353.114,66.449 353.781,66.107 353.141,65.763 "/>
<path fill="#222222" d="M368.281,57.752c0,0-0.154-0.321-0.372-0.767l-1.102,1.046L368.281,57.752z"/>
<path fill="#222222" d="M171.497,104.374c-0.206,0.82-2.695,3.61-3.671,4.679l0.764,2.152l6.85-2.372l1.026-5.747
	C176.464,103.086,171.747,103.342,171.497,104.374z"/>
<polygon fill="#222222" points="154.026,102.34 154.145,101.995 153.955,102.27 "/>
<polygon fill="#222222" points="158.887,104.896 159.762,104.719 159.897,104.201 159.436,104.016 "/>
<path fill="#222222" d="M136.304,113.096c3.594,1.61,4.109,1.301,3.812-2.354C138.772,111.571,137.725,112.219,136.304,113.096z"/>
<path fill="#222222" d="M152.676,95.954l-0.102-0.522l-2.407,2.574l0.484-1.132l0.751-0.771l-0.894-1.422l-2.402,0.042l-0.122-0.381
	l-2.234,7.53l0.648,0.351l-0.648,0.924l2.576-0.563l0.309,2.154c0,0,5.846-3.298,5.827-4.111c-0.009-0.469,1.124-2.34,2.095-3.857
	L152.676,95.954z M148.235,99.344l0.101,0.136l-0.009-0.004l-0.465,0.652L148.235,99.344z M147.609,100.656l0.032-0.065
	l-0.024,0.071L147.609,100.656z"/>
<polygon fill="#222222" points="160.328,101.229 161.378,101.165 161.174,100.773 "/>
<polygon fill="#222222" points="255.464,45.823 255.854,45.952 257.627,45.107 257.191,44.058 "/>
<path fill="#222222" d="M324.866,29.397l-1.329-2.895c0,0-2.03,1.584-1.826,2.122c0.115,0.309,0.028,1.403-0.069,2.301l-0.49,0.104
	l-9.903,12.028l0.45,2.992l-1.342,1.45c-0.555-0.909-1.076-1.643-1.31-1.601c-0.354,0.063-1.799-0.806-2.938-1.536l0.198,5.475
	l2.388,2.107l3.485-1.131c0,0-0.754-1.487-1.534-2.826l1.276-0.424l0.19,1.253c0,0,2.538-1.462,4.56-2.836l3.32-1.106l-0.867-1.143
	c0.121-1.154,4.079-7.108,4.079-7.108l3.229-1.559l2.92-5.765l-5.217,1.099L324.866,29.397z"/>
<path fill="#222222" d="M441.259,92.643c0.105,0.102,0.24,0.497,0.381,1.019l2.085-0.75l-1.363-2.144l-1.07,0.114
	C441.169,91.778,441.122,92.506,441.259,92.643z"/>
<polygon fill="#222222" points="448.095,75.672 445.665,75.948 448.688,80.177 "/>
<path fill="#222222" d="M323.262,60.353l-0.247,1.789l1.153,0.878c0,0,0.477-1.076,0.277-1.25c-0.158-0.14-0.496-1.004-0.617-1.341
	L323.262,60.353z"/>
<path fill="#222222" d="M405.931,51.287l-2.755,6.524l1.103,0.051c0.825-2.427,1.953-1.826,2.612-2.269l0.188-1.455l2.415-0.909
	l-1.376-2.767L405.931,51.287z"/>
<polygon fill="#222222" points="224.189,45.672 236.62,48.582 242.33,25.438 "/>
<polygon fill="#222222" points="404.774,50.045 404.646,49.546 404.376,49.934 "/>
<polygon fill="#222222" points="424.415,68.059 420.558,67.052 420.585,67.142 418.776,66.403 417.029,67.368 405.33,65.343 
	403.616,69.319 412.437,72.067 421.898,72.734 422.376,73.308 422.848,74.938 423.419,74.556 425.854,77.473 427.838,76.118 
	428.521,78.171 428.886,77.423 428.026,75.987 435.862,70.627 425.969,68.917 "/>
<polygon fill="#222222" points="613.184,65.546 610.914,58.301 608.929,62.793 608.901,62.864 612.701,65.613 "/>
<path fill="#222222" d="M600.711,73.279c-2.044-0.671-3.637-1.192-5.803-1.904C596.394,76.537,597.175,76.804,600.711,73.279z"/>
<path fill="#222222" d="M318.995,59.173c-1.615,0.794-1.654,1.066-0.285,2.023C318.811,60.484,318.886,59.93,318.995,59.173z"/>
<path fill="#222222" d="M322.739,61.11l2.191-3.287l-1.446-2.839c0,0-1.966,1.668-1.734,2.197c0.182,0.428,0.021,2.46-0.051,3.244
	L322.739,61.11z"/>
<path fill="#222222" d="M342.88,40.735c1.493-0.519,2.65-0.918,4.233-1.467C343.953,36.912,343.383,37.102,342.88,40.735z"/>
<polygon fill="#222222" points="448.864,13.98 448.032,13.844 446.886,15.584 447.284,15.885 "/>
<path fill="#222222" d="M429.916,50.965c-0.708-0.577-2.292-4.293-2.895-5.735l-2.442-0.245l-0.84,7.79l5.148,3.646
	C428.889,56.42,430.809,51.688,429.916,50.965z"/>
<path fill="#222222" d="M385.349,45.796l-0.533-0.107l-2.231,1.4l0.095,0.168c-0.38,0.113-0.739,0.212-0.975,0.274l-0.262,1.094
	l3.483,0.834l1.946-2.118c0,0-1.379-0.772-2.07-0.837L385.349,45.796z"/>
<polygon fill="#222222" points="504.657,55.237 503.597,55.576 505.528,56.4 504.778,55.299 "/>
<polygon fill="#222222" points="386.413,46.488 387.271,46.204 386.656,46.076 "/>
<polygon fill="#222222" points="382.82,26.072 375.349,26.372 375.225,30.08 378.361,31.437 379.172,29.712 378.279,28.419 
	379.854,26.2 382.256,26.828 "/>
<polygon fill="#222222" points="318.434,64.578 321.529,68.885 319.367,70.228 323.166,74.966 323.69,76.841 326.192,75.518 
	327.767,70.442 328.363,70.337 319.873,62.656 "/>
<polygon fill="#222222" points="408.601,49.731 409.137,49.612 410.584,47.411 409.36,46.519 "/>
<polygon fill="#222222" points="407.35,49.538 406.683,50.155 407.297,50.02 "/>
<path fill="#222222" d="M398.045,48.406l1.431,2.491c-0.725-0.391-1.521-0.775-1.682-0.673c-0.188,0.113-1.185,0.084-2.006,0.041
	l0.554,1.719l-0.187,0.156l2.971,0.711l1.021-0.787l1.007,1.752l0.796-3.957l0.009-0.062l-3.537-1.528L398.045,48.406z"/>
<path fill="#222222" d="M570.762,79.757c-0.022,0.008-0.044,0.018-0.061,0.029c-0.04,0.027-0.1,0.055-0.172,0.075
	c-0.424,0.131-1.381,0.175-2.392,0.17l-0.864,1.438l1.833,4.309l3.646,0.73l3.601-3.46
	C576.354,83.048,571.614,79.493,570.762,79.757z"/>
<polygon fill="#222222" points="603.896,36.4 604.166,36.253 604.128,36.142 "/>
<polygon fill="#222222" points="599.907,31.715 600.229,32.156 601.025,31.666 600.208,31.315 "/>
<path fill="#222222" d="M592.593,25.037l3.054,2.535l-0.164,0.507l6.34-2.19l1.505-4.194c0,0-6.717,0.183-7.077,0.909
	C596.037,23.019,594.16,24.144,592.593,25.037z"/>
<path fill="#222222" d="M561.847,17.365c-0.528,0.311-1.062,0.62-1.568,0.911l0.198,0.101L561.847,17.365z"/>
<polygon fill="#222222" points="558.819,23.906 559.928,22.758 558.314,23.436 "/>
<path fill="#222222" d="M564.168,20.982l-0.36,3.165c0,0,2.56-0.307,2.663-0.875c0.078-0.454,1.337-2.059,1.833-2.679l-0.493-1.144
	L564.168,20.982z"/>
<path fill="#222222" d="M493.441,34.651c0,0-0.379,3.702,0.386,4.025c0.618,0.261,2.481,2.533,3.194,3.425l1.765-0.33l-1.008-5.617
	L493.441,34.651z"/>
<path fill="#222222" d="M570.401,25.983l0.04-0.389l-0.578-1.345l-1.444,0.093l2.509,2.39l-0.336-0.781
	C570.485,25.969,570.401,25.983,570.401,25.983z"/>
<polygon fill="#222222" points="511.585,28.359 513.136,24.739 514.29,23.522 512.898,21.311 509.152,21.381 508.979,20.788 
	507.032,27.329 499.064,25.531 499.884,33.248 505.781,31.543 505.484,32.54 507.064,33.398 508.298,30.817 510.509,30.179 
	510.694,30.435 510.846,30.082 514.521,29.021 "/>
<path fill="#222222" d="M566.333,30.715c-2.209-0.57-3.923-1.01-6.263-1.609C561.993,34.457,562.829,34.688,566.333,30.715z"/>
<polygon fill="#222222" points="534.225,45.862 533.224,45.51 533.635,46.041 533.703,46.071 "/>
<path fill="#222222" d="M555.225,30.372l0.024,0.011l-0.015-0.221l-0.485,0.031l0.333,0.126l-1.044,0.53l-0.136-0.117l-0.119,1.643
	l-1.461-1.062l0.06-0.263l-3.116,1.311l-0.62,2.16c0,0,3.371-0.31,3.53-0.688c0.086-0.201,0.872-0.751,1.591-1.23l-0.024,0.351
	l1.072,1.012c0,0,0.831-2.07,0.655-2.272C555.375,31.576,555.289,30.943,555.225,30.372z"/>
<path fill="#222222" d="M555.543,19.809l-0.819-0.062l-0.191,2.602l1.749,1.157c0,0,0.585-1.593,0.275-1.824
	C556.32,21.501,555.754,20.283,555.543,19.809z"/>
<path fill="#222222" d="M550.727,52.765l-0.711-0.198l-1.431,2.18l0.276,2.458l1.926,1.429c0,0,0.719-4.042,0.423-4.337
	C551.097,54.194,550.896,53.517,550.727,52.765z"/>
<path fill="#222222" d="M550.609,52.668l0.714,0.199c-0.079-0.314-0.157-0.646-0.234-0.945L550.609,52.668z"/>
<polygon fill="#222222" points="532.611,52.406 531.877,51.538 530.793,54.489 530.24,55.137 530.998,56.184 532.895,56.005 
	533.006,56.294 534.458,50.266 533.651,49.899 "/>
<path fill="#222222" d="M417.707,44.71c0,0,0.298,0.389,0.691,0.93l1.375-1.824L417.707,44.71z"/>
<polygon fill="#222222" points="419.146,57.638 423.605,55.44 420.781,51.973 "/>
<path fill="#222222" d="M651.04,60.611l-0.553,6.286c0,0,5.058-0.734,5.229-1.861c0.144-0.908,2.543-4.147,3.494-5.398l-1.028-2.237
	L651.04,60.611z"/>
<path fill="#222222" d="M647.921,70.482l-0.646,0.429l-0.166,0.312c-0.188-0.753-0.375-1.508-0.562-2.227
	c-2.996,1.216-5.175,2.771-5.175,2.771l0.788-4.055l-9.702,2.616l0.734,1.273l12.974,2.16l1.661,1.826l0.612-6.841l-0.806,1.483
	C647.806,70.375,647.921,70.482,647.921,70.482z"/>
<path fill="#222222" d="M53.215,59.288l-0.296,1.048l-3.156,1.428c0.817-0.064,1.815-0.146,2.817-0.226l-2.227,7.878l10.37-7.123
	l1.022-3.026l-1.796-0.791L53.215,59.288z"/>
<polygon fill="#222222" points="68.986,70.658 77.002,70.142 77.677,68.179 77.708,67.461 77.894,67.543 79.93,61.494 
	69.563,68.632 "/>
<polygon fill="#222222" points="435.311,100.207 435.433,100.267 436.481,100.002 434.641,99.084 "/>
<path fill="#222222" d="M478.839,89.316l-2.405,0.863l-0.229-0.259l-0.859,4.224l1.827,2.207c0,0,2.098-3.779,1.821-4.213
	C478.822,91.885,478.817,90.469,478.839,89.316z"/>
<path fill="#222222" d="M466.337,117.027l1.3,0.602c-0.093-0.633-0.177-1.285-0.238-1.883L466.337,117.027z"/>
<polygon fill="#222222" points="431.738,112.232 430.531,110.304 427.892,115.722 426.71,116.824 427.95,119.111 431.581,119.324 
	431.743,119.908 435.694,108.644 434.2,107.685 "/>
<path fill="#222222" d="M466.05,95.902c-1.511,1.332-2.682,2.369-4.286,3.779C466.633,100.941,467.213,100.441,466.05,95.902z"/>
<path fill="#222222" d="M510.299,50.138c0.055-0.465,0.119-0.932,0.19-1.368l-0.927,0.578L510.299,50.138z"/>
<polygon fill="#222222" points="489.318,52.189 488.179,50.596 484.657,54.078 484.034,51.65 480.114,55.919 478.717,56.517 
	479.272,59.306 482.614,61.057 482.61,61.721 "/>
<polygon fill="#222222" points="372.939,146.943 374.751,148.529 376.413,142.781 374.106,142.207 "/>
<polygon fill="#222222" points="367.048,139.773 360.289,141.551 367.632,147.967 369.689,147.582 369.576,145.613 "/>
<polygon fill="#222222" points="352.099,147.883 352.195,148.594 352.045,148.594 351.525,153.654 358.529,145.121 358.606,143.427 
	352.271,146.34 "/>
<path fill="#222222" d="M611.247,20.769c-0.207,0.109-1.312,0.015-2.218-0.084l0.503,1.938l-0.22,0.157l3.241,0.979l1.854-1.271
	C614.411,22.49,611.608,20.583,611.247,20.769z"/>
<path fill="#222222" d="M490.412,126.308c0,0,0.629-0.824,1.484-1.97l-2.779-2.799L490.412,126.308z"/>
<polygon fill="#222222" points="581.702,27.126 581.75,27.892 582.635,26.736 581.766,27.051 "/>
<path fill="#222222" d="M377.844,53.464l0.417,1.104c0.186-0.41,0.396-0.829,0.58-1.225L377.844,53.464z"/>
<polygon fill="#222222" points="456.957,73.698 461.59,78.709 468.694,73.601 458.464,70.247 456.258,71.634 "/>
<path fill="#222222" d="M387.37,41.984c-1.425,0.02-2.535,0.04-4.048,0.055C385.363,44.964,385.904,44.955,387.37,41.984z"/>
<path fill="#222222" d="M450.765,82.434c1.129,2.848,1.847,4.121,2.716,3.854c0.675-0.205,1.44-1.353,2.556-3.417
	C454.184,82.713,452.731,82.588,450.765,82.434z"/>
<path fill="#222222" d="M452.664,86.621c-0.188,0.339-1.617,1.288-2.174,1.65l0.083,1.052l3.325-0.26l1.13-2.44
	C455.03,86.621,452.897,86.188,452.664,86.621z"/>
<path fill="#222222" d="M444.795,26.59c-0.163,0.111-0.335,0.226-0.494,0.336l0.411,0.307L444.795,26.59z"/>
<polygon fill="#222222" points="316.625,56.894 315.69,57.353 315.747,58.159 314.278,58.588 313.261,57.594 312.744,57.73 
	316.599,59.906 317.792,58.417 "/>
<path fill="#222222" d="M520.793,80.764c0.602,1.188,1.071,2.108,1.71,3.368C524.114,81.221,523.886,80.768,520.793,80.764z"/>
<path fill="#222222" d="M338.494,60.236c-0.115-0.112-0.25,0.732-0.25,0.732l0.646,0.693l0.414-0.918l-0.219-0.472
	C338.946,60.29,338.591,60.327,338.494,60.236z"/>
<polygon fill="#222222" points="342.09,63.631 341.939,62.352 341.545,61.993 341.772,63.605 "/>
<polygon fill="#222222" points="402.227,97.413 400.094,99.193 403.582,100.727 405.29,95.732 "/>
<path fill="#222222" d="M156.368,108.26c-0.268,1.556-0.476,2.765-0.764,4.413C159.195,111.048,159.304,110.452,156.368,108.26z"/>
<polygon fill="#222222" points="139.656,105.321 139.924,105.76 140.374,105.365 140.181,104.249 "/>
<path fill="#222222" d="M156.657,112.516l1.659,0.8c-0.558-0.351-1.128-0.704-1.666-1.039L156.657,112.516z"/>
<path fill="#222222" d="M121.076,97.427l-0.427-0.46l0.009,5.855l6.756,2.833l6.037-3.369c-1.725-1.509-3.805-3.179-4.323-3.003
	C128.195,99.594,121.076,97.427,121.076,97.427z"/>
<path fill="#222222" d="M176.35,41.948c-0.202,0.825-2.692,3.613-3.667,4.685l0.761,2.149l6.849-2.369l1.031-5.749
	C181.325,40.665,176.606,40.923,176.35,41.948z"/>
<path fill="#222222" d="M198.124,95.317c5.739,4.31,10.214,7.655,16.305,12.228C215.478,91.979,213.299,90.287,198.124,95.317z"/>
<path fill="#222222" d="M139.821,88.483l1.558,7.304c2.107-1.298,4.497-2.915,4.48-3.504c-0.019-1.065,4.486-7.727,4.486-7.727
	l0.608-0.296l-6.054-1.855L139.821,88.483z"/>
<path fill="#222222" d="M98.812,82.499l-6.245,2.158l-1.483,4.126c0,0,6.618-0.179,6.974-0.891c0.202-0.413,2.05-1.527,3.598-2.401
	L98.649,83L98.812,82.499z"/>
<path fill="#222222" d="M372.102,15.459c-0.315,1.288-4.194,5.636-5.722,7.305l1.189,3.355l10.683-3.699l1.604-8.965
	C379.857,13.456,372.501,13.859,372.102,15.459z"/>
<polygon fill="#222222" points="482.901,1.858 483.582,9.635 484.734,21.615 494.506,8.322 484.81,-0.701 "/>
<path fill="#222222" d="M286.089,90.305c-1.915,0.547-10.478-1.287-13.791-2.029l-3.504,4.056l12.784,11.198l12.902-4.584
	C294.479,98.945,288.48,89.635,286.089,90.305z"/>
<polygon fill="#222222" points="562.079,43.458 564.694,51.995 564.866,58.624 571.032,53.354 "/>
<path fill="#222222" d="M364.799,91.183c-4.973-2.971-8.836-5.293-14.101-8.443C351.518,97.162,353.401,98.316,364.799,91.183z"/>
<path fill="#222222" d="M464.975,121.948l1.267-0.937l-8.894-4.526l-6.555,2.68l-2.774,7.721c0,0,11.43-0.309,12.047-1.543
	C460.367,124.747,462.663,123.298,464.975,121.948z"/>
<polygon fill="#222222" points="590.835,108.411 600.913,106.245 591.101,94.16 582.408,107.385 584.297,109.766 "/>
<path fill="#222222" d="M396.352,110.875c-0.055,0.272-0.501,0.852-1.113,1.538l2.864,3.025l1.861-4.234l-1.099-1.783
	C397.502,109.973,396.425,110.51,396.352,110.875z"/>
<polygon fill="#222222" points="196.179,122.733 198.27,133.677 216.159,129.722 204.2,127.043 "/>
<path fill="#222222" d="M113.13,53.263l1.297,0.604l3.145-3.816l-0.044-4.857l-3.375-3.372c0,0-2.17,7.631-1.665,8.293
	C112.698,50.373,112.936,51.748,113.13,53.263z"/>
<polygon fill="#222222" points="25.261,142.922 35.449,132.51 34.111,129.758 27.859,129.347 18.218,128.786 "/>
<path fill="#222222" d="M333.32,71.455c0.463-0.57,5.803-2.027,5.803-2.027l2.569,0.705l4.451-1.799l-5.438-3.039l-11.422,1.9
	l-2.33,3.646C326.953,70.842,332.861,72.013,333.32,71.455z"/>
</svg>
