<?xml version="1.0" encoding="utf-8"?>
<!-- Generator: Adobe Illustrator 16.0.0, SVG Export Plug-In . SVG Version: 6.00 Build 0)  -->
<!DOCTYPE svg PUBLIC "-//W3C//DTD SVG 1.1//EN" "http://www.w3.org/Graphics/SVG/1.1/DTD/svg11.dtd">
<svg version="1.1" id="Layer_1" xmlns="http://www.w3.org/2000/svg" xmlns:xlink="http://www.w3.org/1999/xlink" x="0px" y="0px"
	 width="232.595px" height="49.499px" viewBox="0 0 232.595 49.499" enable-background="new 0 0 232.595 49.499"
	 xml:space="preserve">
<polygon fill="#1B1B1B" points="151.643,4.569 151.086,5.443 150.719,5.781 152.158,5.644 "/>
<polygon fill="#1B1B1B" points="161.365,17.602 161.273,18.523 163.059,19.529 "/>
<path fill="#1B1B1B" d="M129.742,21.646l-3.099-3.44l-2.667,2.508l-1.178,10.87l1.59-0.375c-0.131-5.171,1.93-3.875,2.693-4.775
	l-0.387-2.387L129.742,21.646z"/>
<path fill="#1B1B1B" d="M90.651,37.085c-0.804,0.246-1.344,1.736-2.047,4.613c1.991-0.623,3.536-1.128,5.632-1.801
	C92.505,37.824,91.449,36.841,90.651,37.085z"/>
<path fill="#1B1B1B" d="M81.141,27.992l2.009,3.292l2.507-3.47l-0.64-1.826c-1.347,0.234-2.426,0.513-2.562,0.826
	C82.348,27.047,81.834,27.483,81.141,27.992z"/>
<path fill="#1B1B1B" d="M49.994,19.085l2.446-2.352c0,0-3.213-2.417-3.795-2.237c-0.017,0.005-0.032,0.013-0.041,0.022
	c-0.03,0.022-0.071,0.04-0.125,0.057c-0.292,0.09-0.927,0.121-1.61,0.123l-0.588,0.966l1.248,2.932L49.994,19.085z"/>
<polygon fill="#1B1B1B" points="49.257,26.146 49.556,27.21 50.274,26.828 52.393,31.804 59.205,25.644 58.444,23.797 
	54.491,23.206 51.432,22.778 47.377,19.122 46.566,20.203 48.326,22.668 47.091,23.435 "/>
<path fill="#1B1B1B" d="M129.113,25.29l5.187-3.397l0.409-4.103c0,0-5.991,1.685-6.148,2.417c-0.094,0.421-1.522,1.86-2.73,3.015
	l3.31,1.579L129.113,25.29z"/>
<path fill="#1B1B1B" d="M158.099,12.652l0.202-3.167c0,0-4.213,1.341-4.308,1.862c-0.096,0.527-3.008,3.354-3.008,3.354
	l-1.907,0.459l-2.22,2.733l4.572,0.025L158.099,12.652z"/>
<polygon fill="#1B1B1B" points="171.375,19.07 171.248,19.052 170.379,19.656 172.357,19.866 "/>
<path fill="#1B1B1B" d="M217.33,12.608c0.043,0.847-1.521,4.245-2.143,5.548l1.363,1.838l5.854-4.271l-0.699-5.796
	C221.709,9.926,217.272,11.548,217.33,12.608z"/>
<path fill="#1B1B1B" d="M144.188,22.321c2.797,0.763,4.961,1.354,7.922,2.161C149.769,17.647,148.703,17.342,144.188,22.321z"/>
<path fill="#1B1B1B" d="M166.499,25.849c0.761-0.248,1.349-0.449,2.15-0.707C166.84,24.066,166.549,24.158,166.499,25.849z"/>
<polygon fill="#1B1B1B" points="171.83,13.31 168.514,16.387 169.212,16.658 172.538,15.26 "/>
<polygon fill="#1B1B1B" points="180.59,14.96 180.877,14.616 180.047,14.744 "/>
<polygon fill="#1B1B1B" points="176.558,12.077 176.603,12.034 174.672,9.036 174.31,8.953 173.913,14.713 "/>
<path fill="#1B1B1B" d="M56.467,37.617l6.711,0.834l-1.43-0.834c-0.153,0.156-0.26,0.27-0.26,0.27l-0.394-0.65l-2.468-1.445
	L56.467,37.617z"/>
<polygon fill="#1B1B1B" points="195.576,11.192 195.775,13.213 194.11,14.038 194.159,14.743 198.237,10.914 196.493,8.757 
	194.049,9.529 194.436,10.901 "/>
<path fill="#1B1B1B" d="M184.191,20.367c5.463,2.043,6.203,1.535,5.41-3.841C187.691,17.879,186.209,18.931,184.191,20.367z"/>
<polygon fill="#1B1B1B" points="154.434,8.252 154.322,8.362 154.354,8.416 "/>
<polygon fill="#1B1B1B" points="165.695,19.919 167.201,21.756 169.566,24.562 170.229,18.5 165.83,18.738 "/>
<polygon fill="#1B1B1B" points="134.121,21.604 130.918,17.567 131.727,21.997 "/>
<path fill="#1B1B1B" d="M134.156,31.65c-0.468,0.029-2.381-1.043-3.93-1.967l-0.687,3.902l-0.526,0.113l5.045,4.421l4.389-0.767
	C138.447,37.355,134.961,31.602,134.156,31.65z"/>
<path fill="#1B1B1B" d="M170.267,2.191c1.406-0.004,2.501-0.013,3.997-0.013C172.277-0.729,171.74-0.729,170.267,2.191z"/>
<polygon fill="#1B1B1B" points="189.516,34.326 194.904,34.246 196.279,35.029 197.492,32.113 196.068,27.508 196.459,26.941 
	185.951,28.976 185.861,31.406 190.484,31.656 "/>
<path fill="#1B1B1B" d="M0,31.292l1.47-0.068c-0.09-0.189-0.168-0.348-0.234-0.485L0,31.292z"/>
<path fill="#1B1B1B" d="M22.143,34.066c1.535-4.602,2.868-8.634,4.593-13.787c-10.748,3.726-12.243,5.978-7.097,13.845l-0.976,0.371
	c0.386,0.578,0.717,1.123,1.187,1.779c0.171-0.529,0.337-1.023,0.507-1.525L22.143,34.066z"/>
<path fill="#1B1B1B" d="M107.084,29.488c-0.708,0.034-1.561,0.082-2.434,0.153l-2.545,2.277l-4.672,5.385l1.714,0.712l7.608-3.117
	l0.918-2.541l-1.31-1.302L107.084,29.488z"/>
<polygon fill="#1B1B1B" points="97.975,20.444 94.388,22.93 99.477,24.703 100.592,24.035 100.245,22.987 "/>
<polygon fill="#1B1B1B" points="30.085,31.576 30.145,31.509 30.145,30.798 29.265,31.814 "/>
<path fill="#1B1B1B" d="M29.65,30.242l1.699-0.799c0,0-2.057-1.949-2.379-1.84c-0.189,0.061-1.085-0.162-1.816-0.367l0.155,1.67
	l-0.199,0.101L29.65,30.242z"/>
<path fill="#1B1B1B" d="M83.344,21.759c-0.028,0.022-0.073,0.041-0.128,0.057c-0.293,0.09-0.937,0.125-1.622,0.125l-0.586,0.966
	l1.248,2.932l2.483,0.488l2.446-2.337c0,0-3.214-2.429-3.798-2.252C83.37,21.745,83.356,21.752,83.344,21.759z"/>
<path fill="#1B1B1B" d="M122.535,4.472l-0.112,1.835l0.896,3.353h2.656l-4.309-5.491l0.521,1.058
	C122.387,5.206,122.535,4.472,122.535,4.472z"/>
<polygon fill="#1B1B1B" points="162.951,29.048 162.022,31.38 162.199,31.109 166.736,28.39 163.008,29.048 "/>
<path fill="#1B1B1B" d="M86.167,25.691c0.124,0.154,0.23,1.073,0.304,1.832l1.505-0.738l0.164,0.151l0.252-2.819l-1.348-1.304
	C87.046,22.813,85.949,25.433,86.167,25.691z"/>
<polygon fill="#1B1B1B" points="179.326,28.476 179.285,28.438 178.834,28.388 179.467,28.943 "/>
<polygon fill="#1B1B1B" points="105.403,22.46 106.901,25.209 105.615,25.787 107.473,28.824 107.666,29.937 109.146,29.408 
	110.314,26.643 110.652,26.632 106.313,21.487 "/>
<polygon fill="#1B1B1B" points="105.601,20.585 105.818,20.349 105.844,20.448 108.123,19.242 103.14,17.146 102.4,17.604 
	104.863,20.978 "/>
<polygon fill="#1B1B1B" points="180.719,36.431 181.107,36.559 182.881,35.714 182.445,34.666 "/>
<path fill="#1B1B1B" d="M177.869,33.011l-0.248,1.788l1.154,0.878c0,0,0.477-1.075,0.277-1.249c-0.158-0.14-0.496-1.005-0.617-1.341
	L177.869,33.011z"/>
<polygon fill="#1B1B1B" points="61.612,40.476 74.042,43.386 79.753,20.243 "/>
<path fill="#1B1B1B" d="M173.602,31.831c-1.615,0.794-1.654,1.066-0.285,2.023C173.418,33.142,173.492,32.587,173.602,31.831z"/>
<path fill="#1B1B1B" d="M177.346,33.768l2.193-3.287l-1.447-2.839c0,0-1.965,1.668-1.734,2.197c0.182,0.428,0.02,2.46-0.051,3.244
	L177.346,33.768z"/>
<polygon fill="#1B1B1B" points="173.041,37.236 176.137,41.543 173.975,42.886 177.773,47.624 178.297,49.499 180.799,48.176 
	182.373,43.1 182.971,42.995 174.48,35.314 "/>
<path fill="#1B1B1B" d="M6.282,27.541l-0.296,1.049L2.83,30.016c0.817-0.063,1.815-0.145,2.817-0.226l-2.227,7.879l10.37-7.123
	l1.022-3.027l-1.796-0.79L6.282,27.541z"/>
<polygon fill="#1B1B1B" points="22.053,38.912 30.069,38.396 30.745,36.433 30.775,35.714 30.961,35.796 32.997,29.748 
	22.63,36.884 "/>
<polygon fill="#1B1B1B" points="171.232,29.552 170.297,30.011 170.354,30.818 168.885,31.246 167.868,30.252 167.351,30.388 
	171.205,32.564 172.398,31.076 "/>
<path fill="#1B1B1B" d="M193.102,32.894c-0.115-0.112-0.25,0.732-0.25,0.732l0.646,0.693l0.414-0.918l-0.219-0.472
	C193.553,32.949,193.197,32.985,193.102,32.894z"/>
<polygon fill="#1B1B1B" points="196.697,36.289 196.547,35.009 196.152,34.652 196.379,36.263 "/>
<path fill="#1B1B1B" d="M101.604,32.554c-0.202,0.826-2.692,3.613-3.667,4.686l0.761,2.148l6.849-2.368l1.031-5.749
	C106.579,31.273,101.86,31.531,101.604,32.554z"/>
<polygon fill="#1B1B1B" points="142.754,23.536 139.736,27.333 151.246,27.267 159.16,21.88 152.925,13.6 "/>
<polygon fill="#1B1B1B" points="139.229,18.489 157.327,9.69 150.396,2.681 "/>
<path fill="#1B1B1B" d="M66.197,21.516l1.297,0.604l3.145-3.816l-0.044-4.858l-3.375-3.372c0,0-2.17,7.631-1.665,8.293
	C65.766,18.626,66.003,20.001,66.197,21.516z"/>
</svg>
