<?xml version="1.0" encoding="utf-8"?>
<!-- Generator: Adobe Illustrator 16.0.0, SVG Export Plug-In . SVG Version: 6.00 Build 0)  -->
<!DOCTYPE svg PUBLIC "-//W3C//DTD SVG 1.1//EN" "http://www.w3.org/Graphics/SVG/1.1/DTD/svg11.dtd">
<svg version="1.1" id="Layer_1" xmlns="http://www.w3.org/2000/svg" xmlns:xlink="http://www.w3.org/1999/xlink" x="0px" y="0px"
	 width="1298px" height="156px" viewBox="-117 0 1298 156" enable-background="new -117 0 1298 156" xml:space="preserve">
<polygon fill="#222222" points="570.12,95.595 572.847,87.996 567.368,88.313 "/>
<path fill="#222222" d="M489.505,71.597c0.025,0,0.034,0.003,0.043,0.006l-6.237-4.731C485.021,69.21,487.407,71.417,489.505,71.597
	z"/>
<path fill="#222222" d="M494.523,91.807c-1.04-1.43-2.661-3.166-3.949-3.135c-3.205,0.077-6.416,0.232-9.625,0.359l-0.284,0.326
	l9.8,4.447L494.523,91.807z"/>
<path fill="#222222" d="M516.415,93.282l11.688-2.751l-12.55-9.068l-0.336-0.131l-5.27,4.279l-0.091,2.659
	C512.517,89.465,514.654,91.162,516.415,93.282z"/>
<path fill="#222222" d="M493.595,87.074c0.595,0,1.174-0.003,1.794-0.009l-0.992-0.941L493.595,87.074z"/>
<path fill="#222222" d="M412.69,124.989l-1.849-2.577l-3.765-3.812v-0.896c0-0.063,3.252-0.381,3.877-0.793l-22.176-2.885
	c0.136,0.195,0.645,0.417,0.777,0.618l-2.937,7.295l9.179,4.976c0.634,0.617,1.436,1.178,2.204,1.637l-0.055,0.996l1.02,0.559
	l0.424-0.893c0.556,0.223,1.104,0.385,1.588,0.412c4.751,0.271,9.582,0.346,14.816,0.346l-1.969-5.998L412.69,124.989z"/>
<polygon fill="#222222" points="690.241,162.007 692.746,160.142 690.801,155.182 688.11,155.748 "/>
<path fill="#222222" d="M271.295,71.603c0,0-3.445,14.852-2.407,16.037c0.414,0.479,1,3.077,1.529,5.921l2.534,0.962l5.711-7.74
	l-0.557-9.285L271.295,71.603z"/>
<path fill="#222222" d="M268.695,96.557l1.921-2.584l-2.538-0.958C268.3,94.189,268.51,95.428,268.695,96.557z"/>
<polygon fill="#222222" points="481.613,54.073 477.328,63.076 480.93,65.066 484.132,57.523 "/>
<polygon fill="#222222" points="550.912,87.238 551.137,87.001 546.944,80.387 545.603,100.32 547.107,102.373 552.952,89.879 
	551.604,87.725 "/>
<polygon fill="#222222" points="522.556,80.633 522.334,80.903 523.004,81.364 "/>
<polygon fill="#222222" points="594.561,79.803 585.942,79.79 592.564,87.993 605.74,76.709 "/>
<polygon fill="#222222" points="358.665,63.236 360.462,64.08 360.929,58.959 358.882,59.097 "/>
<path fill="#222222" d="M213.439,124.875c0,0,2.721,1.658,3.259,1.175c0.43-0.373,2.874-0.975,3.823-1.19l0.397-1.481l-4.708-1.308
	L213.439,124.875z"/>
<polygon fill="#222222" points="277.224,44.189 279.13,44.997 279.142,40.491 278.475,40.812 "/>
<polygon fill="#222222" points="280.873,40.353 281.564,39.327 280.801,39.703 "/>
<polygon fill="#222222" points="230.551,113.149 233.707,116.053 234.879,113.849 232.206,111.66 "/>
<polygon fill="#222222" points="244.988,102.608 249.908,98.095 242.095,96.82 240.539,98.046 241.216,99.486 "/>
<polygon fill="#222222" points="243.806,92.175 239.462,88.212 238.465,89.007 238.188,89.413 238.124,89.284 235.027,91.771 
	242.822,93.084 "/>
<polygon fill="#222222" points="245.964,94.321 246.045,94.436 246.305,94.041 "/>
<polygon fill="#222222" points="251.351,99.172 250.176,98.953 245.251,103.467 247.921,105.66 "/>
<path fill="#222222" d="M235.94,95.238c-4.245-0.566-7.527-1.016-12.026-1.615C228.678,103.169,230.312,103.41,235.94,95.238z"/>
<path fill="#222222" d="M421.644,71.389l-0.088-0.725l-6.526,6.448l0.632,6.056c0,0,8.167-4.193,8.187-5.304
	c0-0.634,1.658-3.138,3.058-5.156L421.644,71.389z"/>
<polygon fill="#222222" points="265.971,105.012 268.045,105.198 265.285,102.369 265.79,104.826 "/>
<polygon fill="#222222" points="481.282,90.619 483.732,88.886 479.032,83.789 478.317,81.693 475.501,83.454 473.948,89.425 
	473.266,89.604 483.579,97.608 485.132,95.282 "/>
<polygon fill="#222222" points="174.832,115.144 187.618,111.528 190.797,87.276 189.599,86.993 185.263,86.138 187.17,96.867 
	178.973,94.943 179.742,108.635 174.425,113.425 "/>
<polygon fill="#222222" points="597.596,131.435 598.1,131.158 598.027,130.949 "/>
<path fill="#222222" d="M307.536,110.509c0,0-0.71,6.945,0.722,7.552c1.161,0.488,4.657,4.753,5.996,6.423l3.307-0.618
	l-1.889-10.536L307.536,110.509z"/>
<polygon fill="#222222" points="369.015,102.729 371.923,95.937 374.088,93.656 371.477,89.508 364.449,89.638 364.123,88.527 
	360.474,100.797 345.526,97.425 347.063,111.902 358.127,108.705 357.569,110.572 360.533,112.185 362.847,107.34 366.994,106.144 
	367.345,106.624 367.626,105.96 374.521,103.971 "/>
<polygon fill="#222222" points="466.891,149.183 465.016,148.525 465.787,149.521 465.914,149.575 "/>
<path fill="#222222" d="M506.287,120.125l0.045,0.021l-0.027-0.415l-0.91,0.058l0.623,0.237l-1.957,0.993l-0.255-0.22l-0.225,3.083
	l-2.739-1.996l0.109-0.489l-5.848,2.458l-1.162,4.052c0,0,6.325-0.581,6.622-1.292c0.162-0.377,1.636-1.408,2.984-2.307
	l-0.048,0.657l2.014,1.898c0,0,1.56-3.887,1.229-4.267C506.57,122.385,506.407,121.198,506.287,120.125z"/>
<path fill="#222222" d="M165.46,129.379c0,0,0.558,0.727,1.298,1.742l2.579-3.421L165.46,129.379z"/>
<polygon fill="#222222" points="555.957,114.036 556.048,115.473 557.708,113.305 556.076,113.896 "/>
<path fill="#222222" d="M216.276,95.387c-0.307,0.208-0.629,0.421-0.927,0.633l0.771,0.573L216.276,95.387z"/>
<polygon fill="#222222" points="503.359,148.352 503.253,156 534.03,149.376 523.679,134.468 "/>
<path fill="#222222" d="M288,125.5c-0.594,2.416-7.869,10.574-10.734,13.703l2.231,6.295l20.04-6.936l3.008-16.817
	C302.551,121.742,288.75,122.497,288,125.5z"/>
<polygon fill="#222222" points="105.279,123.613 106.558,138.205 108.72,160.678 127.05,135.742 108.86,118.814 "/>
<path fill="#222222" d="M303.39,87.399l6.589-14.602c-3.92,0.653-8.791,1.336-9.664,0.767c-0.139-0.095-0.382-0.078-0.701,0.016
	c-3.036,0.931-13.209,9.618-13.209,9.618l8.158,7.102L303.39,87.399z"/>
<polygon fill="#222222" points="732.057,110.128 731.5,111.002 731.133,111.34 732.572,111.203 "/>
<polygon fill="#222222" points="741.779,123.16 741.688,124.082 743.473,125.088 "/>
<polygon fill="#222222" points="1094.919,113.462 1096.373,109.41 1093.452,109.58 "/>
<polygon fill="#222222" points="974.178,151.854 974.05,152.51 975.546,152.529 976.332,150.364 976.329,150.346 "/>
<polygon fill="#222222" points="972.485,151.874 972.814,151.884 972.749,151.688 "/>
<path fill="#222222" d="M1001.487,153.735l-0.45,0.101l0.117-0.887c0,0-1.171,0.121-1.223,0.379c-0.028,0.146-0.342,0.562-0.6,0.883
	l-8.152,1.798l10.528,3.099L1001.487,153.735z"/>
<path fill="#222222" d="M780.803,145.154l-3.099-3.44l-2.667,2.51l-1.178,10.869l1.591-0.375c-0.132-5.171,1.929-3.876,2.692-4.774
	l-0.388-2.387L780.803,145.154z"/>
<polygon fill="#222222" points="876.005,156.526 877.193,155.375 874.827,153.356 874.002,155.01 "/>
<path fill="#222222" d="M905.816,155.641c0.901,1.103,1.609,1.958,2.564,3.13C909.395,155.351,909.052,154.926,905.816,155.641z"/>
<polygon fill="#222222" points="1054.476,155.355 1056.983,149.016 1049.464,156.089 "/>
<path fill="#222222" d="M949.407,139.05c-0.511,0.155-1.213,0.741-2.206,1.705c1.293,0.729,2.288,1.302,3.647,2.087
	C950.624,139.919,950.34,138.764,949.407,139.05z"/>
<path fill="#222222" d="M741.712,160.593c-0.804,0.246-1.344,1.736-2.047,4.613c1.991-0.623,3.536-1.128,5.632-1.801
	C743.566,161.332,742.51,160.35,741.712,160.593z"/>
<path fill="#222222" d="M1051.946,100.669c0.013,0,0.019,0.002,0.021,0.004l-3.325-2.521
	C1049.556,99.398,1050.829,100.573,1051.946,100.669z"/>
<path fill="#222222" d="M1067.105,88.232c-0.555-0.765-1.42-1.688-2.104-1.672c-1.708,0.042-3.42,0.125-5.131,0.19l-0.151,0.173
	l5.226,2.371L1067.105,88.232z"/>
<path fill="#222222" d="M1056.729,127.096l6.23-1.467l-6.689-4.834l-0.179-0.067l-2.809,2.279l-0.05,1.417
	C1054.65,125.062,1055.79,125.967,1056.729,127.096z"/>
<path fill="#222222" d="M1054.127,108.92c0.316,0,0.625-0.002,0.956-0.005l-0.528-0.501L1054.127,108.92z"/>
<path fill="#222222" d="M1054.096,125.966l-0.985-1.374l-2.007-2.03v-0.479c0-0.033,1.733-0.203,2.066-0.423l-11.821-1.538
	c0.073,0.104,0.344,0.221,0.415,0.329l-1.563,3.889l4.893,2.652c0.339,0.329,0.765,0.627,1.175,0.873l-0.028,0.531l0.544,0.298
	l0.227-0.478c0.297,0.119,0.589,0.205,0.847,0.222c2.532,0.145,5.107,0.185,7.898,0.185l-1.05-3.197L1054.096,125.966z"/>
<polygon fill="#222222" points="980.107,148.89 980.293,149.176 980.232,148.9 "/>
<polygon fill="#222222" points="980.823,151.582 981.944,151.743 980.293,149.176 "/>
<polygon fill="#222222" points="972.804,146.558 972.896,150.36 975.477,150.194 976.581,148.606 980.107,148.89 977.367,144.635 
	"/>
<path fill="#222222" d="M732.202,151.499l2.009,3.292l2.507-3.47l-0.64-1.826c-1.348,0.234-2.426,0.512-2.562,0.825
	C733.409,150.556,732.896,150.991,732.202,151.499z"/>
<path fill="#222222" d="M602.594,146.998l2.446-2.352c0,0-3.213-2.417-3.795-2.237c-0.017,0.005-0.032,0.013-0.041,0.022
	c-0.03,0.021-0.071,0.04-0.125,0.057c-0.292,0.09-0.927,0.121-1.61,0.123l-0.588,0.966l1.248,2.932L602.594,146.998z"/>
<polygon fill="#222222" points="830.539,71.722 832.3,74.174 831.061,74.94 833.23,77.649 833.539,78.71 834.951,77.955 
	835.855,75.07 836.199,75.016 831.349,70.626 "/>
<path fill="#222222" d="M709.527,130.849l5.187-3.397l0.409-4.103c0,0-5.991,1.685-6.148,2.417c-0.093,0.421-1.521,1.858-2.73,3.015
	l3.31,1.579L709.527,130.849z"/>
<path fill="#222222" d="M738.514,118.211l0.201-3.167c0,0-4.212,1.341-4.309,1.862c-0.096,0.527-3.008,3.354-3.008,3.354
	l-1.906,0.459l-2.221,2.733l4.572,0.025L738.514,118.211z"/>
<polygon fill="#222222" points="751.789,124.629 751.662,124.611 750.793,125.215 752.771,125.425 "/>
<path fill="#222222" d="M753.973,127.492c0.043,0.847-1.521,4.245-2.143,5.548l1.363,1.838l5.854-4.271l-0.699-5.796
	C758.352,124.811,753.916,126.433,753.973,127.492z"/>
<path fill="#222222" d="M795.248,145.829c2.797,0.763,4.961,1.354,7.923,2.161C800.83,141.156,799.764,140.851,795.248,145.829z"/>
<path fill="#222222" d="M875.465,87.24l-0.258-1.671l-9.142-4.516c-0.026,1.128-0.054,2.202-0.069,3.346
	c2.176-0.271,3.883-0.289,3.883-0.289l-1.233,3.13H875.465z"/>
<path fill="#222222" d="M726.77,79.939l-0.184,0.468l5.998-1.576l1.688-3.765c0,0-2.663-0.132-4.608-0.04
	c0.573-0.903,1.107-2.312,1.721-4.282c-1.569,0.271-2.965,0.513-4.385,0.756l0.496-3.473l1.117,0.103l-0.611-1.229l-0.357,0.103
	l0.152-1.062l-3.256,1.184l-1.785-1.557c0,0-0.264,1.144-0.502,2.388l-2.894,1.053l2.511,1.718c0.002,0.169,0.022,0.289,0.063,0.337
	c0.144,0.155,0.347,1.054,0.519,2.016l0.879,0.331l0.186-0.252c1.438,1.436,2.537,2.364,3.438,2.795
	c-0.718,0.428-1.832,0.977-2.822,1.441L726.77,79.939z"/>
<path fill="#222222" d="M1010.74,156.881c-0.157-0.149-0.301-0.693-0.426-1.396l-3.742,0.673l1.848,3.018l1.871-0.003
	C1010.697,158.022,1010.945,157.078,1010.74,156.881z"/>
<path fill="#222222" d="M854.672,43.367c-0.301-0.004-0.916-0.207-1.641-0.492l-2.951-1.927l-0.334,0.478
	c-0.553-0.262-1.047-0.505-1.398-0.679l-2.094,1.167l2.484,3.138l-1.211,1.196l-2.443-1.105l-0.739,0.695l5.599,0.741l0.139,0.174
	c0.108,2.146,0.804,2.785,2.447,2.28c0.6-0.183,1.332-0.526,2.199-0.991l3.045-0.062C857.771,47.979,855.885,43.409,854.672,43.367z
	"/>
<path fill="#222222" d="M872.611,104.959l0.661-0.882l-0.878-0.329C872.474,104.156,872.552,104.576,872.611,104.959z"/>
<polygon fill="#222222" points="882.25,29.695 881.886,32.842 883.629,33.102 884.537,31.958 886.922,32.759 887.012,35.051 
	887.834,35.348 885.562,28.814 "/>
<path fill="#222222" d="M817.56,149.358c0.762-0.249,1.35-0.45,2.15-0.708C817.9,147.574,817.61,147.666,817.56,149.358z"/>
<polygon fill="#222222" points="737.33,98.942 734.004,97.236 733.954,97.214 731.695,99.975 731.725,100.342 "/>
<polygon fill="#222222" points="752.245,118.869 748.927,121.946 749.626,122.217 752.952,120.819 "/>
<polygon fill="#222222" points="761.004,120.52 761.292,120.175 760.461,120.304 "/>
<polygon fill="#222222" points="756.973,117.635 757.018,117.593 755.086,114.593 754.725,114.513 754.327,120.272 "/>
<path fill="#222222" d="M956.146,44.428c0,0-11.384-1.082-12.146,0.072c-0.372,0.552-2.825,1.717-5.283,2.769
	c-0.522,0.224-1.044,0.454-1.543,0.661l0.172,0.113l8.274,5.576l6.83-1.859L956.146,44.428z"/>
<polygon fill="#222222" points="861.021,146.581 855.044,154.461 862.723,148.584 "/>
<polygon fill="#222222" points="1018.001,155.226 1020.582,159.414 1021.357,157.933 1018.824,154.671 "/>
<polygon fill="#222222" points="1158.952,148.864 1160.286,147.868 1159.25,145.226 1157.816,145.527 "/>
<path fill="#222222" d="M798.7,49.479l-5.35,5.722l1.92,6.017c0,0,4.375-2.631,4.108-3.741c-0.224-0.891,0.742-4.809,1.131-6.328
	L798.7,49.479z"/>
<polygon fill="#222222" points="775.991,116.751 776.189,118.772 774.523,119.598 774.572,120.301 778.65,116.474 776.907,114.316 
	774.462,115.088 774.85,116.46 "/>
<path fill="#222222" d="M764.605,125.926c5.463,2.043,6.203,1.535,5.41-3.841C768.105,123.438,766.624,124.49,764.605,125.926z"/>
<path fill="#222222" d="M850.049,100.352h-7.262l0.272-0.236l9.729,3.796c0.029-1.208,0.055-2.853,0.074-4.062
	c-2.32,0.282-4.132,2.069-4.132,2.069L850.049,100.352z"/>
<path fill="#222222" d="M982.435,151.67c0,0,1.693,2.271,2.03,2.219c0.195-0.029,1.039,0.348,1.729,0.671l0.134-1.67l0.214-0.066
	l-2.301-1.654L982.435,151.67z"/>
<polygon fill="#222222" points="734.848,113.812 734.736,113.921 734.77,113.975 "/>
<polygon fill="#222222" points="873.855,160.363 874.075,151.103 868.893,160.305 "/>
<polygon fill="#222222" points="839.035,52.727 838.998,52.793 842.037,55.649 842.47,55.643 841.297,48.995 "/>
<polygon fill="#222222" points="816.756,143.426 818.263,145.265 820.627,148.07 821.291,142.008 816.892,142.246 "/>
<polygon fill="#222222" points="785.182,145.112 781.98,141.075 782.787,145.505 "/>
<polygon fill="#222222" points="913.61,119.233 918.345,117.592 916.98,116.156 "/>
<path fill="#222222" d="M865.676,101.774l0.813,1.873c0.312-0.033,0.543-0.11,0.543-0.11l-0.181,1.645l1.401,4.719h4.141
	L865.676,101.774z"/>
<polygon fill="#222222" points="896.671,153.176 896.307,157.015 896.552,157.325 900.74,152.703 896.736,153.169 "/>
<path fill="#222222" d="M979.791,110.078c0,0-1.836,7.917-1.283,8.548c0.221,0.256,0.533,1.643,0.815,3.157l1.352,0.512l3.044-4.125
	l-0.297-4.948L979.791,110.078z"/>
<path fill="#222222" d="M978.405,123.38l1.022-1.377l-1.353-0.51C978.194,122.117,978.307,122.778,978.405,123.38z"/>
<polygon fill="#222222" points="1047.739,91.327 1045.456,96.127 1047.375,97.188 1049.082,93.167 "/>
<polygon fill="#222222" points="1066.919,93.201 1067.039,93.075 1064.804,89.549 1064.089,100.177 1064.892,101.271 
	1068.007,94.61 1067.288,93.461 "/>
<polygon fill="#222222" points="1069.564,105.487 1069.446,105.63 1069.803,105.876 "/>
<path fill="#222222" d="M965.914,143.779c-0.1,0.031-0.167,0.071-0.202,0.123c-0.145,0.229-0.901,0.646-1.748,1.057l-0.304,1.235
	l2.24,2.213l2.729-0.809l1.785-3.51C970.415,144.091,966.852,143.493,965.914,143.779z"/>
<polygon fill="#222222" points="1089.382,103.981 1090.066,93.784 1088.946,92.03 1087.791,93.248 1085.361,98.957 1089.151,104.15 
	1087.189,105.586 1088.259,107.158 1089.83,107.045 1090.942,109.524 1089.189,111.274 1089.551,112.147 1093.081,105.557 
	1089.949,103.568 "/>
<path fill="#222222" d="M882.035,159.076c1.05-0.94,1.984-1.787,2.927-2.632l0.719-0.443l-0.007-0.195
	c0.928-0.834,1.875-1.688,2.954-2.662C881.05,151.273,880.146,152.068,882.035,159.076z"/>
<polygon fill="#222222" points="1107.948,105.044 1103.354,105.037 1106.884,109.408 1113.907,103.395 "/>
<polygon fill="#222222" points="804.855,78.549 807.642,89.33 825.25,84.239 813.141,82.331 "/>
<polygon fill="#222222" points="1026.365,105.618 1027.322,106.067 1027.571,103.338 1026.48,103.41 "/>
<path fill="#222222" d="M948.95,138.475c0,0,1.45,0.885,1.735,0.627c0.229-0.199,1.531-0.521,2.038-0.637l0.212-0.79l-2.51-0.695
	L948.95,138.475z"/>
<polygon fill="#222222" points="982.952,95.465 983.968,95.896 983.975,93.493 983.618,93.663 "/>
<polygon fill="#222222" points="993.57,153.977 992.698,154.291 992.636,154.366 992.684,155.132 "/>
<polygon fill="#222222" points="984.896,93.42 985.266,92.873 984.858,93.072 "/>
<polygon fill="#222222" points="958.072,132.225 959.755,133.773 960.379,132.598 958.955,131.431 "/>
<polygon fill="#222222" points="965.768,126.606 968.391,124.199 964.226,123.521 963.396,124.174 963.757,124.942 "/>
<polygon fill="#222222" points="965.138,121.044 962.822,118.932 962.29,119.356 962.144,119.572 962.109,119.504 960.459,120.828 
	964.613,121.529 "/>
<polygon fill="#222222" points="966.288,122.189 966.332,122.249 966.47,122.039 "/>
<polygon fill="#222222" points="969.16,124.774 968.533,124.656 965.908,127.064 967.331,128.233 "/>
<path fill="#222222" d="M974.516,111.774h1.296l-0.226-2.292c0.084-0.125,0.169-0.558,0.253-0.677l-0.312-0.232l-0.113-0.911
	l-14.266-7.264c-0.042,1.761-0.088,3.334-0.109,5.11c3.4-0.422,6.051,0.465,6.051,0.465l-1.919,5.8h4.639l-0.302-0.314l0.339,2.925
	c0,0,4.352-1.774,4.356-2.367C974.207,111.896,974.341,111.774,974.516,111.774z"/>
<path fill="#222222" d="M960.945,122.676c-2.265-0.302-4.015-0.541-6.411-0.859C957.073,126.905,957.944,127.032,960.945,122.676z"
	/>
<path fill="#222222" d="M1023.612,84.124l-0.048-0.386l-3.479,3.437l0.337,3.229c0,0,4.354-2.235,4.364-2.826
	c0-0.338,0.884-1.674,1.63-2.749L1023.612,84.124z"/>
<path fill="#222222" d="M1134.912,125.28l6.814,28.844l7.035-4.41l0.415,1.134l1.948,0.32c0,0-0.111-1.6-0.461-1.681
	c-0.137-0.033-0.438-0.247-0.748-0.5l4.112-2.577L1134.912,125.28z"/>
<path fill="#222222" d="M1010.019,154.51c1.375,0.382,2.441,0.675,3.901,1.083C1012.78,152.215,1012.252,152.065,1010.019,154.51z"
	/>
<polygon fill="#222222" points="866.026,100.703 867.132,100.801 865.661,99.295 865.93,100.605 "/>
<path fill="#222222" d="M910.824,107.474c-0.08-0.294,0.389-1.665,0.798-2.77l-2.612,0.02l-0.131-0.32l-2.245,3.79l1.024,2.746
	C907.656,110.94,910.954,107.989,910.824,107.474z"/>
<path fill="#222222" d="M914.329,111.715c-1.909,0.77-3.384,1.387-5.412,2.202C913.199,116.775,913.927,116.474,914.329,111.715z"/>
<polygon fill="#222222" points="1058.294,96.945 1059.599,96.021 1057.094,93.303 1056.713,92.187 1055.211,93.126 1054.385,96.308 
	1054.021,96.403 1059.518,100.67 1060.346,99.431 "/>
<polygon fill="#222222" points="968.646,154.272 969.317,154.559 969.464,152.666 968.697,152.729 "/>
<path fill="#222222" d="M961.86,155.237c-0.159-0.09-0.59-1.006-0.909-1.771l-0.101,0.15l-0.827-1.438l-0.423-0.057l0.268,2.553
	l0.249,0.057l-0.224,0.336l-0.193-0.079l0.784,3.121l1.653,0.649C962.137,158.76,962.154,155.395,961.86,155.237z"/>
<polygon fill="#222222" points="957.101,151.896 953.717,152.548 953.682,153.33 955.175,153.413 954.861,154.278 956.604,154.252 
	957.048,154.503 957.439,153.566 956.975,152.074 "/>
<polygon fill="#222222" points="1033.547,150.697 1033.386,150.115 1032.198,148.645 1030.199,149.891 1032.927,151.026 "/>
<polygon fill="#222222" points="1032.058,152.467 1033.404,154.306 1033.801,154.092 1033.92,153.962 1033.939,154.019 
	1035.179,153.362 1032.462,152.205 "/>
<polygon fill="#222222" points="1031.236,151.685 1031.377,151.609 1031.359,151.551 "/>
<polygon fill="#222222" points="858.674,119.854 860.922,120.863 858.664,119.158 "/>
<polygon fill="#222222" points="892.153,50.703 890.914,49.282 891.404,48.944 891.148,48.483 891.387,48.304 890.806,47.464 
	891.098,47.021 889.252,46.921 888.215,47.21 889.336,46.125 890.143,45.494 890.311,44.562 887,45.5 880.543,39.972 
	880.101,43.945 881.177,43.771 880.523,44.526 881.302,46.414 880.759,46.551 880.877,47.101 880.627,47.176 880.947,48.234 
	880.565,48.551 882.23,49.381 883.259,49.531 881.951,50.131 881.053,50.422 880.965,50.604 891.377,56.259 892.203,51.367 
	891.703,51.66 "/>
<path fill="#222222" d="M750.682,107.75c1.405-0.004,2.5-0.013,3.996-0.013C752.691,104.83,752.154,104.83,750.682,107.75z"/>
<polygon fill="#222222" points="840.576,157.834 845.966,157.753 847.34,158.536 848.553,155.62 847.13,151.017 847.52,150.449 
	837.013,152.484 836.923,154.914 841.545,155.163 "/>
<polygon fill="#222222" points="939.411,128.381 946.228,126.453 947.922,113.526 947.283,113.374 944.972,112.919 945.988,118.639 
	941.618,117.613 942.028,124.911 939.194,127.464 "/>
<path fill="#222222" d="M917.39,147.861l1.683,1.083l-0.055,0.267l3.044-1.478l0.509-2.191c0,0-3.354,0.494-3.492,0.88
	C918.994,146.644,918.121,147.32,917.39,147.861z"/>
<path fill="#222222" d="M930.073,126.738l0.003-0.064l-3.344-3.137l3.622-1.913l0.071-1.299c0,0-6.79,3.391-6.954,4.459
	c-0.083,0.625-1.738,2.998-3.084,4.86l6.21,0.871L930.073,126.738z"/>
<path fill="#222222" d="M907.607,141.064c1.474,0.56,2.621,0.992,4.188,1.586C910.88,138.818,910.318,138.597,907.607,141.064z"/>
<path fill="#222222" d="M1101.399,142.964c-0.316,0.382-2.217,1.057-4.115,1.651l-1.068,0.471l5.698,4.742l5.189-0.863l3.285-5.138
	C1110.387,143.829,1102.051,142.172,1101.399,142.964z"/>
<path fill="#222222" d="M687.499,135.046c-0.708,0.035-1.562,0.083-2.435,0.154l-2.545,2.277l-4.672,5.385l1.715,0.712l7.607-3.117
	l0.918-2.541l-1.311-1.302L687.499,135.046z"/>
<polygon fill="#222222" points="749.036,143.952 745.449,146.438 750.538,148.211 751.652,147.543 751.307,146.495 "/>
<path fill="#222222" d="M635.943,149.672c-0.027,0.022-0.072,0.041-0.127,0.059c-0.293,0.09-0.938,0.125-1.623,0.125l-0.586,0.966
	l1.248,2.932l2.483,0.488l2.446-2.337c0,0-3.215-2.429-3.799-2.252C635.97,149.657,635.957,149.665,635.943,149.672z"/>
<path fill="#222222" d="M675.136,132.385l-0.112,1.837l0.896,3.353h2.656l-4.308-5.491l0.521,1.06
	C674.988,133.118,675.136,132.385,675.136,132.385z"/>
<path fill="#222222" d="M956.901,121.871l-0.064-1.774l3.362-5.667l3.314-0.745l-0.239-5.546c-0.936-0.787-1.841-1.564-1.801-1.581
	c0.037-0.017,0.804-0.408,1.692-0.869l-0.377-1.368c0,0-6.938,7.366-11.275,9.768l3.714,8.925L956.901,121.871z"/>
<polygon fill="#222222" points="814.013,152.558 813.084,154.89 813.261,154.616 817.798,151.898 814.068,152.558 "/>
<path fill="#222222" d="M737.229,149.198c0.123,0.155,0.229,1.074,0.303,1.833l1.506-0.739l0.164,0.152l0.252-2.819l-1.348-1.304
	C738.107,146.321,737.01,148.941,737.229,149.198z"/>
<path fill="#222222" d="M872.668,147.647c-0.477-1.125-0.932-2.228-0.887-2.225c0.033,0.006,0.896-0.001,1.901-0.007l0.28-1.389
	c0,0-9.521,3.421-14.477,3.594l-0.734,9.636l2.005-0.256l0.747-1.61l1.969-1.25l4.634-0.325l0.054-0.741l2.162,0.883l2.154,0.28
	l-1.291-3.344l0.729-1.603l1.298,2.875l1.873-3.517l-3.102,0.49L872.668,147.647z M867.074,151.86l1.306,0.335l-0.229,0.185
	l-4.62,1.729L867.074,151.86z"/>
<polygon fill="#222222" points="830.387,151.984 830.347,151.946 829.895,151.896 830.527,152.45 "/>
<polygon fill="#222222" points="756.464,145.968 757.962,148.718 756.676,149.295 758.534,152.332 758.727,153.446 760.207,152.915 
	761.376,150.151 761.713,150.141 757.375,144.995 "/>
<polygon fill="#222222" points="658.202,148.498 658.418,148.263 658.445,148.361 660.723,147.155 655.741,145.06 655.001,145.517 
	657.464,148.892 "/>
<path fill="#222222" d="M873.949,153.918c0,0-0.154-0.32-0.372-0.767l-1.103,1.046L873.949,153.918z"/>
<path fill="#222222" d="M806.77,55.143c-0.206,0.82-2.695,3.61-3.671,4.679l0.764,2.152l6.85-2.372l1.026-5.747
	C811.736,53.855,807.02,54.111,806.77,55.143z"/>
<path fill="#222222" d="M786.168,92.772l-0.102-0.521l-2.407,2.573l0.483-1.132l0.752-0.771L784,91.5l-2.402,0.042l-0.121-0.382
	l-2.234,7.53l0.648,0.352l-0.648,0.924l2.576-0.563l0.309,2.154c0,0,5.846-3.298,5.827-4.111c-0.009-0.469,1.124-2.34,2.095-3.856
	L786.168,92.772z M781.727,96.162l0.102,0.137l-0.009-0.004l-0.466,0.651L781.727,96.162z M781.102,97.475l0.031-0.065l-0.023,0.071
	L781.102,97.475z"/>
<polygon fill="#222222" points="761.132,141.989 761.521,142.118 763.295,141.273 762.859,140.225 "/>
<path fill="#222222" d="M830.534,125.563l-1.329-2.896c0,0-2.03,1.584-1.826,2.122c0.115,0.31,0.028,1.403-0.069,2.301l-0.489,0.104
	l-9.903,12.028l0.45,2.991l-1.342,1.45c-0.556-0.909-1.076-1.643-1.311-1.601c-0.354,0.062-1.799-0.807-2.938-1.536l0.197,5.475
	l2.389,2.107l3.484-1.131c0,0-0.754-1.487-1.533-2.826l1.275-0.424l0.19,1.253c0,0,2.538-1.462,4.56-2.836l3.32-1.106l-0.867-1.143
	c0.121-1.154,4.079-7.108,4.079-7.108l3.229-1.559l2.921-5.766l-5.218,1.1L830.534,125.563z"/>
<path fill="#222222" d="M828.93,156.52l-0.247,1.789l1.153,0.878c0,0,0.477-1.076,0.277-1.25c-0.158-0.141-0.496-1.004-0.617-1.341
	L828.93,156.52z"/>
<path fill="#222222" d="M911.599,147.453l-2.755,6.524l1.104,0.051c0.824-2.427,1.953-1.826,2.611-2.27l0.188-1.454l2.415-0.909
	l-1.376-2.768L911.599,147.453z"/>
<polygon fill="#222222" points="729.857,141.838 742.288,144.748 747.998,121.604 "/>
<polygon fill="#222222" points="910.442,146.211 910.314,145.712 910.044,146.101 "/>
<polygon fill="#222222" points="1118.852,161.712 1116.582,154.467 1114.597,158.959 1114.569,159.03 1118.369,161.779 "/>
<path fill="#222222" d="M1086.25,145.212c-2.044-0.671-3.637-1.192-5.803-1.904C1081.933,148.47,1082.714,148.737,1086.25,145.212z"
	/>
<path fill="#222222" d="M824.663,155.339c-1.615,0.794-1.654,1.066-0.285,2.023C824.479,156.65,824.554,156.097,824.663,155.339z"/>
<path fill="#222222" d="M828.407,157.276l2.19-3.287l-1.445-2.839c0,0-1.967,1.668-1.734,2.197c0.182,0.428,0.021,2.46-0.051,3.243
	L828.407,157.276z"/>
<path fill="#222222" d="M848.548,136.901c1.493-0.52,2.65-0.918,4.233-1.467C849.621,133.078,849.051,133.269,848.548,136.901z"/>
<polygon fill="#222222" points="954.532,110.146 953.7,110.01 952.554,111.75 952.952,112.051 "/>
<path fill="#222222" d="M935.584,147.131c-0.708-0.576-2.292-4.293-2.895-5.734l-2.442-0.245l-0.84,7.79l5.147,3.646
	C934.557,152.586,936.477,147.854,935.584,147.131z"/>
<path fill="#222222" d="M891.017,141.962l-0.532-0.106l-2.231,1.399l0.095,0.168c-0.38,0.113-0.738,0.212-0.975,0.274l-0.262,1.094
	l3.482,0.834l1.946-2.118c0,0-1.379-0.771-2.07-0.837L891.017,141.962z"/>
<polygon fill="#222222" points="1010.325,151.403 1009.265,151.742 1011.196,152.566 1010.446,151.465 "/>
<polygon fill="#222222" points="892.081,142.654 892.939,142.37 892.324,142.242 "/>
<polygon fill="#222222" points="888.488,122.238 881.017,122.538 880.893,126.246 884.029,127.604 884.84,125.878 883.947,124.585 
	885.521,122.366 887.924,122.994 "/>
<polygon fill="#222222" points="914.269,145.897 914.805,145.778 916.252,143.577 915.028,142.686 "/>
<polygon fill="#222222" points="913.018,145.704 912.351,146.321 912.965,146.187 "/>
<path fill="#222222" d="M903.713,144.572l1.431,2.491c-0.725-0.392-1.521-0.775-1.682-0.673c-0.188,0.112-1.185,0.084-2.006,0.041
	l0.554,1.719l-0.187,0.156l2.971,0.711l1.021-0.787l1.008,1.752l0.796-3.957l0.009-0.062l-3.537-1.527L903.713,144.572z"/>
<polygon fill="#222222" points="1109.564,132.566 1109.834,132.419 1109.796,132.309 "/>
<polygon fill="#222222" points="1105.575,127.881 1105.896,128.322 1106.693,127.832 1105.876,127.481 "/>
<path fill="#222222" d="M1098.261,121.203l3.055,2.535l-0.164,0.507l6.34-2.189l1.505-4.194c0,0-6.717,0.183-7.077,0.909
	C1101.705,119.186,1099.828,120.311,1098.261,121.203z"/>
<path fill="#222222" d="M999.109,130.817c0,0-0.379,3.702,0.386,4.024c0.618,0.262,2.48,2.533,3.194,3.426l1.765-0.33l-1.008-5.617
	L999.109,130.817z"/>
<polygon fill="#222222" points="1017.253,124.525 1018.804,120.905 1019.958,119.688 1018.566,117.478 1014.82,117.547 
	1014.646,116.954 1012.7,123.495 1004.732,121.697 1005.552,129.414 1011.449,127.709 1011.152,128.706 1012.732,129.564 
	1013.966,126.983 1016.177,126.346 1016.362,126.602 1016.514,126.248 1020.189,125.188 "/>
<polygon fill="#222222" points="1039.893,142.028 1038.892,141.676 1039.303,142.207 1039.371,142.237 "/>
<path fill="#222222" d="M1056.395,148.932l-0.711-0.198l-1.431,2.18l0.276,2.458l1.926,1.429c0,0,0.719-4.042,0.423-4.337
	C1056.765,150.36,1056.564,149.684,1056.395,148.932z"/>
<path fill="#222222" d="M1056.277,148.834l0.714,0.199c-0.079-0.314-0.157-0.646-0.234-0.945L1056.277,148.834z"/>
<polygon fill="#222222" points="1038.279,148.572 1037.545,147.704 1036.461,150.655 1035.908,151.304 1036.666,152.351 
	1038.562,152.171 1038.674,152.46 1040.126,146.433 1039.319,146.065 "/>
<path fill="#222222" d="M923.375,140.876c0,0,0.298,0.39,0.691,0.931l1.375-1.824L923.375,140.876z"/>
<polygon fill="#222222" points="924.814,153.805 929.273,151.606 926.449,148.14 "/>
<path fill="#222222" d="M1116.45,129.222l-0.553,6.286c0,0,5.058-0.734,5.229-1.861c0.145-0.908,2.543-4.146,3.494-5.397
	l-1.028-2.237L1116.45,129.222z"/>
<path fill="#222222" d="M1113.331,139.093l-0.646,0.429l-0.166,0.312c-0.188-0.754-0.375-1.509-0.562-2.228
	c-2.996,1.216-5.175,2.771-5.175,2.771l0.788-4.056l-9.702,2.616l0.734,1.273l12.974,2.159l1.661,1.826l0.612-6.841l-0.807,1.483
	C1113.216,138.985,1113.331,139.093,1113.331,139.093z"/>
<path fill="#222222" d="M1015.967,146.305c0.055-0.466,0.119-0.933,0.19-1.368l-0.927,0.578L1015.967,146.305z"/>
<polygon fill="#222222" points="994.986,148.355 993.847,146.763 990.325,150.244 989.702,147.816 985.782,152.085 984.385,152.684 
	984.94,155.473 988.282,157.224 988.278,157.888 "/>
<path fill="#222222" d="M1116.915,116.936c-0.207,0.108-1.312,0.015-2.218-0.084l0.503,1.938l-0.22,0.157l3.24,0.979l1.854-1.271
	C1120.079,118.656,1117.276,116.749,1116.915,116.936z"/>
<path fill="#222222" d="M883.512,149.63l0.417,1.104c0.187-0.41,0.396-0.829,0.58-1.226L883.512,149.63z"/>
<path fill="#222222" d="M893.038,138.15c-1.425,0.02-2.535,0.04-4.048,0.055C891.031,141.13,891.572,141.121,893.038,138.15z"/>
<path fill="#222222" d="M950.463,122.756c-0.163,0.111-0.335,0.227-0.494,0.336l0.411,0.308L950.463,122.756z"/>
<polygon fill="#222222" points="822.293,153.061 821.358,153.52 821.415,154.325 819.946,154.754 818.929,153.76 818.412,153.896 
	822.267,156.072 823.46,154.583 "/>
<path fill="#222222" d="M844.162,156.402c-0.115-0.112-0.25,0.731-0.25,0.731l0.646,0.693l0.414-0.918l-0.219-0.472
	C844.614,156.456,844.259,156.493,844.162,156.402z"/>
<polygon fill="#222222" points="847.758,159.797 847.607,158.519 847.213,158.159 847.44,159.771 "/>
<path fill="#222222" d="M774.311,61.219l-0.428-0.46l0.01,5.855l6.756,2.833l6.037-3.369c-1.725-1.509-3.805-3.179-4.323-3.003
	C781.43,63.386,774.311,61.219,774.311,61.219z"/>
<path fill="#222222" d="M682.018,138.114c-0.201,0.825-2.691,3.613-3.666,4.685l0.76,2.149l6.85-2.369l1.031-5.749
	C686.993,136.831,682.273,137.089,682.018,138.114z"/>
<path fill="#222222" d="M925.226,74.816c5.739,4.31,10.214,7.655,16.306,12.228C942.58,71.479,940.4,69.786,925.226,74.816z"/>
<path fill="#222222" d="M800.577,48.571l1.559,7.304c2.107-1.298,4.497-2.915,4.48-3.504c-0.02-1.065,4.486-7.727,4.486-7.727
	l0.607-0.297l-6.055-1.854L800.577,48.571z"/>
<path fill="#222222" d="M846.664,88.998l-6.246,2.158l-1.482,4.126c0,0,6.618-0.179,6.975-0.891
	c0.201-0.413,2.049-1.527,3.598-2.401l-3.008-2.491L846.664,88.998z"/>
<path fill="#222222" d="M877.77,111.625c-0.314,1.288-4.193,5.636-5.722,7.306l1.189,3.354l10.683-3.699l1.604-8.965
	C885.525,109.622,878.169,110.025,877.77,111.625z"/>
<polygon fill="#222222" points="988.569,98.024 989.25,105.801 990.402,117.781 1000.174,104.488 990.478,95.465 "/>
<path fill="#222222" d="M945.857,62.138c-1.915,0.547-10.478-1.287-13.791-2.029l-3.504,4.056l12.784,11.198l12.902-4.584
	C954.247,70.778,948.249,61.467,945.857,62.138z"/>
<polygon fill="#222222" points="1067.747,139.624 1070.362,148.161 1070.534,154.79 1076.7,149.521 "/>
<polygon fill="#222222" points="847.281,47.232 849.371,58.176 867.261,54.222 855.302,51.542 "/>
<path fill="#222222" d="M618.798,149.43l1.297,0.604l3.146-3.816l-0.045-4.856l-3.375-3.372c0,0-2.17,7.631-1.664,8.293
	C618.366,146.539,618.604,147.914,618.798,149.43z"/>
<polygon fill="#222222" points="658.044,115.636 668.231,105.224 666.894,102.472 660.642,102.062 651,101.5 "/>
</svg>
