<?xml version="1.0" encoding="utf-8"?>
<!-- Generator: Adobe Illustrator 16.0.0, SVG Export Plug-In . SVG Version: 6.00 Build 0)  -->
<!DOCTYPE svg PUBLIC "-//W3C//DTD SVG 1.1//EN" "http://www.w3.org/Graphics/SVG/1.1/DTD/svg11.dtd">
<svg version="1.1" id="Layer_1" xmlns="http://www.w3.org/2000/svg" xmlns:xlink="http://www.w3.org/1999/xlink" x="0px" y="0px"
	 width="415px" height="156px" viewBox="0 0 415 156" enable-background="new 0 0 415 156" xml:space="preserve">
<polygon fill="#222222" points="380.332,118.721 382.109,113.768 378.538,113.975 "/>
<path fill="#222222" d="M148.411,138.508c-0.625,0.19-1.483,0.906-2.697,2.085c1.581,0.892,2.798,1.591,4.462,2.552
	C149.899,139.57,149.552,138.157,148.411,138.508z"/>
<path fill="#222222" d="M327.788,103.079c0.017,0,0.022,0.002,0.028,0.004l-4.065-3.084
	C324.865,101.523,326.421,102.962,327.788,103.079z"/>
<path fill="#222222" d="M346.322,87.872c-0.678-0.933-1.734-2.063-2.574-2.044c-2.089,0.051-4.182,0.152-6.273,0.234l-0.186,0.213
	l6.388,2.898L346.322,87.872z"/>
<path fill="#222222" d="M337.458,107.674l7.618-1.793l-8.18-5.911l-0.219-0.085l-3.435,2.789l-0.06,1.733
	C334.917,105.186,336.311,106.292,337.458,107.674z"/>
<path fill="#222222" d="M330.454,113.167c0.388,0,0.765-0.002,1.169-0.006l-0.646-0.613L330.454,113.167z"/>
<path fill="#222222" d="M284.877,133.109l-1.205-1.68l-2.454-2.484v-0.584c0-0.041,2.12-0.248,2.527-0.517l-14.454-1.88
	c0.089,0.127,0.42,0.271,0.507,0.402l-1.914,4.755l5.982,3.243c0.413,0.402,0.936,0.768,1.437,1.066l-0.035,0.649l0.664,0.364
	l0.276-0.582c0.362,0.146,0.72,0.251,1.035,0.269c3.097,0.177,6.245,0.226,9.657,0.226l-1.283-3.909L284.877,133.109z"/>
<polygon fill="#222222" points="458.625,162.007 460.258,160.791 458.99,157.559 457.236,157.928 "/>
<polygon fill="#222222" points="104.642,114.277 110.431,112.271 108.761,110.516 "/>
<path fill="#222222" d="M46.031,92.93l0.995,2.29c0.385-0.04,0.664-0.134,0.664-0.134l-0.219,2.008l1.714,5.771h5.062L46.031,92.93z
	"/>
<path fill="#222222" d="M185.562,103.083c0,0-2.245,9.681-1.569,10.452c0.27,0.312,0.652,2.006,0.997,3.859l1.652,0.627l3.722-5.045
	l-0.363-6.052L185.562,103.083z"/>
<path fill="#222222" d="M183.868,119.348l1.252-1.685l-1.654-0.624C183.61,117.805,183.747,118.611,183.868,119.348z"/>
<polygon fill="#222222" points="322.645,91.657 319.852,97.525 322.199,98.822 324.286,93.906 "/>
<polygon fill="#222222" points="353.98,97.771 354.127,97.617 351.395,93.307 350.52,106.299 351.501,107.637 355.311,99.493 
	354.432,98.089 "/>
<polygon fill="#222222" points="349.33,108.969 349.186,109.145 349.622,109.445 "/>
<polygon fill="#222222" points="295.451,126.254 296.289,113.785 294.92,111.641 293.507,113.13 290.535,120.109 295.17,126.459 
	292.77,128.215 294.078,130.139 296,130 297.359,133.031 295.218,135.171 295.657,136.238 299.974,128.18 296.145,125.749 "/>
<polygon fill="#222222" points="396.262,108.428 390.645,108.419 394.961,113.766 403.549,106.411 "/>
<polygon fill="#222222" points="242.509,97.63 243.68,98.18 243.984,94.842 242.65,94.932 "/>
<path fill="#222222" d="M147.853,137.805c0,0,1.773,1.081,2.124,0.766c0.28-0.243,1.873-0.635,2.492-0.775l0.259-0.966l-3.069-0.853
	L147.853,137.805z"/>
<polygon fill="#222222" points="189.427,85.215 190.669,85.741 190.677,82.805 190.242,83.014 "/>
<polygon fill="#222222" points="191.805,82.715 192.256,82.046 191.758,82.291 "/>
<polygon fill="#222222" points="159.006,130.162 161.063,132.055 161.827,130.618 160.085,129.191 "/>
<polygon fill="#222222" points="168.416,123.292 171.623,120.35 166.53,119.52 165.516,120.318 165.957,121.257 "/>
<polygon fill="#222222" points="167.645,116.491 164.814,113.908 164.164,114.427 163.984,114.691 163.942,114.607 161.924,116.229 
	167.004,117.084 "/>
<polygon fill="#222222" points="169.052,117.891 169.105,117.965 169.274,117.708 "/>
<polygon fill="#222222" points="172.563,121.052 171.797,120.909 168.587,123.852 170.327,125.281 "/>
<path fill="#222222" d="M162.519,118.488c-2.767-0.369-4.906-0.662-7.839-1.053C157.785,123.657,158.85,123.814,162.519,118.488z"/>
<path fill="#222222" d="M292.143,89.35l-0.058-0.473l-4.254,4.203l0.412,3.947c0,0,5.323-2.733,5.336-3.457
	c0-0.413,1.081-2.045,1.993-3.36L292.143,89.35z"/>
<polygon fill="#222222" points="46.46,91.621 47.812,91.742 46.013,89.898 46.342,91.5 "/>
<path fill="#222222" d="M101.235,99.898c-0.098-0.36,0.475-2.035,0.975-3.385l-3.194,0.022l-0.16-0.392l-2.745,4.635l1.252,3.356
	C97.362,104.137,101.394,100.529,101.235,99.898z"/>
<path fill="#222222" d="M105.521,105.085c-2.334,0.938-4.137,1.692-6.617,2.692C104.139,111.271,105.029,110.902,105.521,105.085z"
	/>
<polygon fill="#222222" points="333.876,108.8 335.473,107.67 332.409,104.348 331.943,102.982 330.107,104.13 329.096,108.021 
	328.65,108.139 335.373,113.355 336.385,111.839 "/>
<polygon fill="#222222" points="122.689,131.462 131.023,129.105 133.095,113.299 132.314,113.114 129.488,112.557 130.731,119.55 
	125.388,118.296 125.889,127.22 122.424,130.342 "/>
<path fill="#222222" d="M97.302,140.97c1.802,0.686,3.208,1.212,5.122,1.939C101.303,138.225,100.617,137.953,97.302,140.97z"/>
<path fill="#222222" d="M25.089,135.88c1.826-0.633,3.241-1.123,5.176-1.794C26.401,131.206,25.704,131.438,25.089,135.88z"/>
<polygon fill="#222222" points="78.317,142.914 79.367,142.566 78.615,142.411 "/>
<polygon fill="#222222" points="73.925,117.952 64.789,118.318 64.637,122.852 68.473,124.512 69.463,122.402 68.372,120.822 
	70.297,118.107 73.234,118.876 "/>
<polygon fill="#222222" points="398.24,142.08 398.568,141.9 398.521,141.764 "/>
<polygon fill="#222222" points="393.361,136.352 393.752,136.891 394.729,136.291 393.729,135.861 "/>
<path fill="#222222" d="M384.418,128.186l3.732,3.101l-0.201,0.62l7.752-2.68l1.84-5.127c0,0-8.213,0.224-8.652,1.11
	C388.629,125.719,386.334,127.095,384.418,128.186z"/>
<path fill="#222222" d="M346.824,118.807c-0.647,0.379-1.299,0.758-1.92,1.113l0.244,0.123L346.824,118.807z"/>
<polygon fill="#222222" points="343.122,126.805 344.477,125.398 342.504,126.229 "/>
<path fill="#222222" d="M349.662,123.229l-0.439,3.869c0,0,3.127-0.373,3.256-1.068c0.096-0.555,1.635-2.516,2.24-3.274
	l-0.604-1.397L349.662,123.229z"/>
<path fill="#222222" d="M209.184,128.441c0,0-0.463,4.526,0.471,4.922c0.757,0.318,3.035,3.098,3.908,4.187l2.155-0.403
	l-1.231-6.867L209.184,128.441z"/>
<path fill="#222222" d="M357.284,129.342l0.049-0.474l-0.707-1.644l-1.767,0.113l3.067,2.921l-0.411-0.954
	C357.386,129.327,357.284,129.342,357.284,129.342z"/>
<polygon fill="#222222" points="231.368,120.748 233.264,116.32 234.675,114.834 232.973,112.13 228.393,112.215 228.18,111.491 
	225.801,119.488 216.059,117.29 217.061,126.727 224.271,124.643 223.908,125.859 225.84,126.91 227.348,123.753 230.051,122.973 
	230.279,123.286 230.463,122.854 234.957,121.557 "/>
<path fill="#222222" d="M352.309,135.128c-2.701-0.698-4.797-1.235-7.656-1.969C347.002,139.705,348.025,139.986,352.309,135.128z"
	/>
<polygon fill="#222222" points="313.049,153.648 311.826,153.22 312.329,153.868 312.412,153.904 "/>
<path fill="#222222" d="M338.727,134.709l0.029,0.014l-0.018-0.271l-0.594,0.038l0.406,0.154l-1.275,0.647l-0.166-0.144l-0.146,2.01
	l-1.785-1.301l0.071-0.319l-3.812,1.603l-0.758,2.641c0,0,4.123-0.379,4.316-0.842c0.105-0.246,1.066-0.918,1.945-1.504
	l-0.031,0.429l1.312,1.237c0,0,1.017-2.533,0.801-2.781C338.911,136.182,338.805,135.408,338.727,134.709z"/>
<path fill="#222222" d="M339.116,121.794l-1.003-0.074l-0.234,3.181l2.139,1.416c0,0,0.717-1.948,0.338-2.231
	C340.066,123.863,339.374,122.373,339.116,121.794z"/>
<path fill="#222222" d="M116.581,140.74c0,0,0.364,0.474,0.846,1.136l1.681-2.229L116.581,140.74z"/>
<path fill="#222222" d="M407.227,122.968c-0.254,0.134-1.604,0.019-2.713-0.103l0.615,2.371l-0.268,0.191l3.963,1.196l2.268-1.554
	C411.096,125.072,407.668,122.74,407.227,122.968z"/>
<polygon fill="#222222" points="371.101,130.74 371.16,131.677 372.242,130.264 371.179,130.648 "/>
<path fill="#222222" d="M79.488,137.408c-1.742,0.023-3.1,0.049-4.949,0.066C77.034,141.051,77.695,141.04,79.488,137.408z"/>
<path fill="#222222" d="M149.702,118.585c-0.2,0.136-0.41,0.274-0.604,0.412l0.502,0.374L149.702,118.585z"/>
<polygon fill="#222222" points="349.458,144.734 349.389,149.72 369.449,145.402 362.702,135.686 "/>
<path fill="#222222" d="M60.818,104.975c-0.387,1.575-5.129,6.892-6.996,8.932l1.454,4.104l13.062-4.521l1.96-10.961
	C70.302,102.525,61.307,103.018,60.818,104.975z"/>
<polygon fill="#222222" points="40.795,121.344 41.628,130.854 43.037,145.501 54.984,129.249 43.129,118.215 "/>
<path fill="#222222" d="M206.481,113.379l4.294-9.518c-2.555,0.426-5.729,0.871-6.298,0.5c-0.091-0.062-0.249-0.051-0.457,0.011
	c-1.979,0.606-8.61,6.269-8.61,6.269l5.318,4.629L206.481,113.379z"/>
</svg>
