<?xml version="1.0" encoding="utf-8"?>
<!-- Generator: Adobe Illustrator 16.0.0, SVG Export Plug-In . SVG Version: 6.00 Build 0)  -->
<!DOCTYPE svg PUBLIC "-//W3C//DTD SVG 1.1//EN" "http://www.w3.org/Graphics/SVG/1.1/DTD/svg11.dtd">
<svg version="1.1" id="Layer_1" xmlns="http://www.w3.org/2000/svg" xmlns:xlink="http://www.w3.org/1999/xlink" x="0px" y="0px"
	 width="415px" height="156px" viewBox="0 0 415 156" enable-background="new 0 0 415 156" xml:space="preserve">
<polygon fill="#222222" points="321.832,42.221 323.609,37.267 320.038,37.475 "/>
<polygon fill="#222222" points="174.199,89.164 174.042,89.968 175.872,89.989 176.833,87.341 176.829,87.319 "/>
<polygon fill="#222222" points="172.129,89.189 172.531,89.2 172.452,88.96 "/>
<path fill="#222222" d="M207.59,91.463l-0.55,0.124l0.143-1.086c0,0-1.432,0.148-1.492,0.464c-0.037,0.179-0.418,0.684-0.733,1.08
	l-9.968,2.198l12.873,3.787L207.59,91.463z"/>
<path fill="#222222" d="M17.4,111.291c2.423,2.971,4.308,5.273,6.875,8.408C27.002,110.539,26.085,109.399,17.4,111.291z"/>
<path fill="#222222" d="M32.476,100.418c1.925,0.191,3.415,0.336,5.45,0.535C35.622,96.724,34.889,96.643,32.476,100.418z"/>
<path fill="#222222" d="M50.388,110.23l-0.566,0.767l0.886,1.199l1.205-0.757l2.53,2.672c0.064-0.638,0.123-1.091,0.146-1.074
	c0.028,0.017,0.678,0.365,1.499,0.795l1.222-9.28l-11.433,2.97L50.388,110.23z"/>
<polygon fill="#222222" points="54.161,94.875 55.614,93.469 52.721,90.999 51.712,93.021 "/>
<path fill="#222222" d="M90.612,93.793c1.104,1.35,1.97,2.394,3.138,3.827C94.987,93.438,94.568,92.922,90.612,93.793z"/>
<polygon fill="#222222" points="272.38,93.444 275.447,85.692 266.252,94.342 "/>
<path fill="#222222" d="M143.911,73.508c-0.625,0.19-1.483,0.906-2.697,2.085c1.581,0.892,2.798,1.59,4.462,2.551
	C145.399,74.571,145.052,73.157,143.911,73.508z"/>
<path fill="#222222" d="M269.288,26.579c0.016,0,0.022,0.002,0.028,0.004l-4.065-3.084
	C266.365,25.024,267.921,26.462,269.288,26.579z"/>
<path fill="#222222" d="M287.822,11.372c-0.677-0.933-1.734-2.064-2.574-2.044c-2.089,0.051-4.182,0.152-6.273,0.235l-0.186,0.212
	l6.388,2.899L287.822,11.372z"/>
<path fill="#222222" d="M278.958,31.174l7.618-1.793l-8.18-5.911l-0.218-0.085l-3.435,2.789l-0.06,1.733
	C276.417,28.686,277.811,29.792,278.958,31.174z"/>
<path fill="#222222" d="M271.954,36.667c0.388,0,0.765-0.002,1.169-0.006l-0.646-0.613L271.954,36.667z"/>
<path fill="#222222" d="M294.377,39.11l-1.205-1.68l-2.454-2.485v-0.583c0-0.041,2.12-0.249,2.527-0.517l-14.454-1.88
	c0.089,0.127,0.42,0.271,0.507,0.402l-1.914,4.755l5.982,3.243c0.414,0.402,0.936,0.768,1.437,1.067l-0.036,0.649l0.664,0.364
	l0.277-0.582c0.363,0.146,0.72,0.251,1.035,0.269c3.097,0.177,6.245,0.226,9.657,0.226l-1.283-3.91L294.377,39.11z"/>
<polygon fill="#222222" points="181.449,85.539 181.676,85.89 181.602,85.552 "/>
<polygon fill="#222222" points="182.324,88.831 183.695,89.028 181.676,85.89 "/>
<polygon fill="#222222" points="172.519,82.687 172.633,87.337 175.787,87.133 177.137,85.191 181.449,85.539 178.099,80.336 "/>
<path fill="#222222" d="M218.905,95.31c-0.192-0.185-0.367-0.85-0.521-1.709l-4.575,0.823l2.259,3.69l2.288-0.003
	C218.852,96.706,219.155,95.551,218.905,95.31z"/>
<polygon fill="#222222" points="35.839,82.716 28.532,92.351 37.92,85.165 "/>
<polygon fill="#222222" points="227.782,93.286 230.938,98.407 231.886,96.596 228.789,92.608 "/>
<polygon fill="#222222" points="400.125,85.507 401.758,84.291 400.49,81.059 398.736,81.428 "/>
<path fill="#222222" d="M184.294,88.938c0,0,2.07,2.777,2.482,2.71c0.239-0.035,1.271,0.426,2.114,0.822l0.164-2.042l0.261-0.081
	l-2.813-2.023L184.294,88.938z"/>
<polygon fill="#222222" points="61.172,100.198 60.284,101.031 61.022,103.549 "/>
<polygon fill="#222222" points="58.829,105.667 60.117,105.001 58.645,105.091 "/>
<polygon fill="#222222" points="51.533,99.567 51.801,88.244 45.464,99.496 "/>
<polygon fill="#222222" points="53.718,105.395 54.146,104.606 53.644,104.878 53.615,104.932 "/>
<polygon fill="#222222" points="100.142,49.277 105.931,47.271 104.261,45.516 "/>
<path fill="#222222" d="M41.531,27.93l0.995,2.29c0.385-0.041,0.664-0.134,0.664-0.134l-0.219,2.008l1.714,5.771h5.062L41.531,27.93
	z"/>
<path fill="#222222" d="M138.329,100.123c-0.036,1.13-2.497,5.398-3.466,7.056l1.565,2.572l8.213-4.92l-0.227-7.719
	C144.414,97.11,138.383,98.729,138.329,100.123z"/>
<polygon fill="#222222" points="79.43,90.78 78.984,95.474 79.284,95.854 84.405,90.201 79.51,90.772 "/>
<path fill="#222222" d="M181.062,38.083c0,0-2.245,9.68-1.569,10.452c0.27,0.313,0.652,2.006,0.997,3.86l1.652,0.626l3.722-5.044
	l-0.363-6.052L181.062,38.083z"/>
<path fill="#222222" d="M179.368,54.348l1.252-1.685l-1.654-0.624C179.11,52.804,179.247,53.611,179.368,54.348z"/>
<polygon fill="#222222" points="264.144,15.157 261.352,21.025 263.699,22.322 265.786,17.406 "/>
<polygon fill="#222222" points="295.481,21.271 295.627,21.117 292.894,16.807 292.02,29.799 293.001,31.137 296.811,22.993 
	295.932,21.589 "/>
<polygon fill="#222222" points="290.83,32.469 290.685,32.644 291.122,32.946 "/>
<path fill="#222222" d="M164.095,79.29c-0.122,0.038-0.205,0.086-0.248,0.149c-0.177,0.282-1.102,0.789-2.137,1.293l-0.372,1.51
	l2.739,2.705l3.337-0.988l2.183-4.289C169.598,79.673,165.241,78.94,164.095,79.29z"/>
<path fill="#222222" d="M266.157,96.385l0.279,3l-0.358,0.183l4.578,2.229l3.061-1.436c0,0-3.704-3.517-4.288-3.314
	C269.093,97.151,267.481,96.747,266.157,96.385z"/>
<polygon fill="#222222" points="315.061,30.629 315.898,18.16 314.529,16.015 313.116,17.505 310.145,24.485 314.779,30.834 
	312.379,32.59 313.688,34.514 315.609,34.375 316.969,37.406 314.827,39.546 315.267,40.613 319.583,32.555 315.754,30.124 "/>
<path fill="#222222" d="M61.534,97.994c1.284-1.15,2.429-2.186,3.579-3.22l0.879-0.541l-0.008-0.24
	c1.134-1.021,2.292-2.065,3.612-3.254C60.33,88.453,59.226,89.426,61.534,97.994z"/>
<polygon fill="#222222" points="337.762,31.928 332.145,31.919 336.461,37.265 345.049,29.911 "/>
<polygon fill="#222222" points="238.009,32.63 239.179,33.179 239.484,29.842 238.15,29.931 "/>
<path fill="#222222" d="M143.353,72.804c0,0,1.773,1.082,2.124,0.767c0.28-0.244,1.873-0.635,2.492-0.776l0.259-0.966l-3.069-0.852
	L143.353,72.804z"/>
<polygon fill="#222222" points="184.927,20.215 186.169,20.741 186.177,17.805 185.742,18.013 "/>
<polygon fill="#222222" points="197.91,91.759 196.844,92.144 196.768,92.235 196.826,93.173 "/>
<polygon fill="#222222" points="187.305,17.715 187.756,17.046 187.258,17.291 "/>
<polygon fill="#222222" points="154.506,65.162 156.563,67.055 157.327,65.618 155.585,64.191 "/>
<polygon fill="#222222" points="163.916,58.292 167.123,55.349 162.03,54.52 161.016,55.318 161.457,56.257 "/>
<polygon fill="#222222" points="163.145,51.491 160.314,48.908 159.664,49.427 159.484,49.691 159.442,49.608 157.424,51.228 
	162.504,52.084 "/>
<polygon fill="#222222" points="164.552,52.891 164.605,52.965 164.774,52.708 "/>
<polygon fill="#222222" points="168.063,56.052 167.297,55.909 164.087,58.852 165.827,60.281 "/>
<path fill="#222222" d="M174.612,40.157h1.584l-0.276-2.803c0.103-0.152,0.207-0.68,0.31-0.827l-0.381-0.284l-0.139-1.114
	l-17.443-8.881c-0.051,2.154-0.105,4.077-0.134,6.251c4.158-0.517,7.398,0.566,7.398,0.566l-2.346,7.092h5.671l-0.369-0.385
	l0.414,3.577c0,0,5.318-2.172,5.327-2.897C174.234,40.307,174.398,40.157,174.612,40.157z"/>
<path fill="#222222" d="M158.019,53.488c-2.767-0.369-4.906-0.662-7.839-1.053C153.285,58.657,154.35,58.814,158.019,53.488z"/>
<path fill="#222222" d="M234.643,6.349l-0.058-0.472l-4.254,4.203l0.412,3.947c0,0,5.324-2.733,5.336-3.456
	c0-0.414,1.081-2.046,1.993-3.361L234.643,6.349z"/>
<path fill="#222222" d="M370.732,56.671l8.334,35.27l8.602-5.393l0.508,1.384l2.383,0.393c0,0-0.137-1.956-0.564-2.054
	c-0.168-0.04-0.533-0.303-0.914-0.611l5.027-3.151L370.732,56.671z"/>
<polygon fill="#222222" points="221.074,107.184 221.455,110.438 222.376,108.577 222.354,108.349 "/>
<path fill="#222222" d="M218.022,92.412c1.682,0.464,2.985,0.822,4.771,1.324C221.399,89.604,220.752,89.421,218.022,92.412z"/>
<polygon fill="#222222" points="41.96,26.621 43.312,26.742 41.513,24.899 41.842,26.5 "/>
<path fill="#222222" d="M96.735,34.898c-0.098-0.36,0.475-2.035,0.975-3.384l-3.194,0.022l-0.16-0.391l-2.745,4.634l1.252,3.357
	C92.862,39.137,96.894,35.529,96.735,34.898z"/>
<path fill="#222222" d="M101.021,40.085c-2.334,0.939-4.137,1.693-6.617,2.693C99.639,46.271,100.529,45.902,101.021,40.085z"/>
<path fill="#222222" d="M226.704,100.986c-1.073,0.296-5.913-0.735-7.767-1.151l-1.982,2.281l7.208,6.312l7.271-2.584
	C231.433,105.844,228.052,100.595,226.704,100.986z"/>
<polygon fill="#222222" points="275.376,32.3 276.973,31.17 273.909,27.847 273.443,26.482 271.607,27.63 270.596,31.521 
	270.151,31.638 276.873,36.855 277.885,35.339 "/>
<polygon fill="#222222" points="206.769,110.214 207.031,109.87 206.707,110.083 "/>
<path fill="#222222" d="M279.791,115.709l-0.005,0.076l4.237,2.946l-3.988,2.822l0.066,1.485c0,0,7.483-5.063,7.555-6.309
	c0.027-0.728,1.667-3.698,3.027-6.058l-7.308,0.127L279.791,115.709z"/>
<polygon fill="#222222" points="167.436,92.12 168.256,92.471 168.435,90.156 167.498,90.232 "/>
<path fill="#222222" d="M166.482,97.395l0.083-0.144l-1.033-5.112c0,0-5.29,5.297-5.198,6.252c0.056,0.567-0.845,3.066-1.624,5.094
	l3.807,0.079l0.139,0.597l2.928-5.175l1.48-0.448l0.467-1.158C167.533,97.377,166.999,97.371,166.482,97.395z"/>
<path fill="#222222" d="M191.458,112.406l2.756-2.654c0,0-0.609-0.36-1.438-0.879L191.458,112.406z"/>
<polygon fill="#222222" points="199.127,105.368 197.247,106.544 198.532,106.965 196.862,111.442 203.395,108.953 203.804,108.682 
	204.012,108.749 204.947,108.067 204.873,107.978 207.953,105.951 200.623,101.355 "/>
<path fill="#222222" d="M159.138,93.299c-0.195-0.109-0.719-1.229-1.112-2.165l-0.121,0.185l-1.014-1.759l-0.515-0.067l0.325,3.122
	l0.304,0.068l-0.271,0.411l-0.239-0.096l0.959,3.815l2.024,0.796C159.476,97.609,159.498,93.492,159.138,93.299z"/>
<polygon fill="#222222" points="153.318,89.215 149.181,90.012 149.138,90.968 150.963,91.069 150.58,92.128 152.71,92.096 
	153.253,92.402 153.732,91.257 153.164,89.433 "/>
<polygon fill="#222222" points="262.383,107.331 264.054,109.775 266.499,109.597 268.219,113.453 265.495,116.175 266.055,117.535 
	271.553,107.282 266.677,104.191 "/>
<polygon fill="#222222" points="246.791,87.749 246.593,87.037 245.141,85.239 242.697,86.763 246.032,88.15 "/>
<polygon fill="#222222" points="244.969,89.913 246.616,92.161 247.101,91.899 247.247,91.741 247.272,91.81 248.786,91.007 
	245.463,89.593 "/>
<polygon fill="#222222" points="243.965,88.956 244.137,88.864 244.116,88.795 "/>
<path fill="#222222" d="M76.387,130.487c0,0,1.333-7.496,0.78-8.023c-0.085-0.082-0.187-0.311-0.299-0.631l0.062,0.031l-0.454-1.384
	c-0.205-0.783-0.417-1.688-0.602-2.521l-0.169,0.174l-1.217-3.699l-0.904-0.382l-0.413,5.854l0.519,0.277l-0.677,0.691l-0.415-0.27
	l0.49,7.427L76.387,130.487z"/>
<polygon fill="#222222" points="315.833,109.494 313.837,104.468 301.583,111.281 308.083,111.527 306.692,122.887 "/>
<polygon fill="#222222" points="131.689,60.462 140.023,58.105 142.095,42.299 141.314,42.114 138.488,41.557 139.731,48.55 
	134.388,47.296 134.889,56.22 131.424,59.342 "/>
<path fill="#222222" d="M104.763,84.281l2.055,1.324l-0.064,0.326l3.722-1.807l0.62-2.68c0,0-4.1,0.604-4.27,1.076
	C106.725,82.791,105.657,83.62,104.763,84.281z"/>
<path fill="#222222" d="M120.271,58.454l0.003-0.079l-4.088-3.836l4.431-2.339l0.087-1.588c0,0-8.302,4.146-8.503,5.453
	c-0.102,0.765-2.127,3.666-3.771,5.943l7.593,1.064L120.271,58.454z"/>
<path fill="#222222" d="M92.802,75.97c1.802,0.685,3.208,1.212,5.122,1.939C96.803,73.224,96.117,72.953,92.802,75.97z"/>
<path fill="#222222" d="M378.979,111.986c-0.387,0.467-2.711,1.292-5.031,2.021l-1.307,0.573l6.967,5.801l6.346-1.059l4.018-6.279
	C389.969,113.044,379.775,111.018,378.979,111.986z"/>
<path fill="#222222" d="M153.075,52.502l-0.079-2.172l4.111-6.928l4.055-0.911l-0.295-6.781c-1.142-0.961-2.249-1.912-2.2-1.933
	c0.045-0.018,0.98-0.499,2.069-1.062l-0.461-1.673c0,0-8.481,9.006-13.787,11.943l4.541,10.912L153.075,52.502z"/>
<path fill="#222222" d="M50.081,84.02c-0.583-1.375-1.139-2.721-1.084-2.718c0.041,0.005,1.096-0.001,2.327-0.008l0.343-1.698
	c0,0-11.641,4.183-17.701,4.395l-0.898,11.783l2.451-0.313l0.914-1.97l2.407-1.528l5.664-0.398l0.065-0.906l2.644,1.081l2.636,0.343
	l-1.579-4.089l0.891-1.958l1.586,3.515l2.29-4.3l-3.792,0.599L50.081,84.02z M43.241,89.17l1.597,0.411l-0.28,0.224l-5.649,2.112
	L43.241,89.17z"/>
<path fill="#222222" d="M20.544,103.374l-1.758-0.319l0.659,2c-0.266-0.087-0.511-0.169-0.788-0.257
	c2.165,7.514,3.296,7.898,8.448,2.762c-2.396-0.784-4.386-1.434-6.712-2.193L20.544,103.374z"/>
<path fill="#222222" d="M125.146,115.936c-0.77-0.419-1.375-0.74-2.196-1.186C123.174,116.938,123.467,117.099,125.146,115.936z"/>
<polygon fill="#222222" points="32.798,101.85 33.103,102.321 33.918,101.903 33.135,101.483 "/>
<path fill="#222222" d="M51.647,91.687c0,0-0.189-0.394-0.455-0.937l-1.346,1.278L51.647,91.687z"/>
<polygon fill="#222222" points="312.181,116.821 314.215,119.513 321.491,118.173 332.701,116.019 322.003,102.333 "/>
<path fill="#222222" d="M119.722,121.613l-1.625-3.537c0,0-2.482,1.937-2.233,2.595c0.141,0.376,0.035,1.716-0.086,2.812
	l-0.599,0.126l-12.109,14.707l0.55,3.659l-1.641,1.773c-0.677-1.111-1.316-2.008-1.6-1.957c-0.432,0.079-2.199-0.983-3.594-1.878
	l0.243,6.693l2.919,2.577l4.263-1.383c0,0-0.922-1.818-1.877-3.455l1.562-0.519l0.233,1.532c0,0,3.104-1.788,5.575-3.468l4.06-1.353
	l-1.06-1.397c0.148-1.411,4.988-8.691,4.988-8.691l3.947-1.906l3.57-7.047l-6.377,1.342L119.722,121.613z"/>
<polygon fill="#222222" points="149.237,113.598 146.266,113.936 149.961,119.107 "/>
<path fill="#222222" d="M97.682,83.782l-3.369,7.979l1.347,0.062c1.01-2.969,2.388-2.233,3.195-2.772l0.228-1.782l2.953-1.11
	l-1.682-3.381L97.682,83.782z"/>
<polygon fill="#222222" points="96.268,82.264 96.112,81.654 95.781,82.127 "/>
<polygon fill="#222222" points="58.332,93.896 59.725,92.315 58.869,91.511 57.94,91.787 56.941,90.442 57.761,89.155 
	57.428,88.676 56.518,91.915 55.015,89.636 55.214,88.475 54.858,88.64 54.302,88.547 51.638,84.509 42.18,93.361 44.334,105.936 
	50.072,104.046 51.718,98.187 60.027,97.315 62.722,105.899 65.596,105.695 57.666,93.657 "/>
<path fill="#222222" d="M372.68,103.835c-4.379-15.222-6.672-15.995-17.109-5.595c1.818,0.597,3.508,1.147,5.166,1.69l-10.145,3.507
	l-3.053,8.503c0,0,13.607-0.371,14.348-1.838c0.428-0.848,4.236-3.135,7.406-4.94l-4.848-4.017
	C367.025,101.988,369.66,102.849,372.68,103.835z"/>
<polygon fill="#222222" points="351.094,101.217 348.318,92.358 345.891,97.851 345.857,97.938 350.504,101.299 "/>
<path fill="#222222" d="M335.844,110.673c-2.5-0.82-4.447-1.458-7.096-2.329C330.564,114.656,331.52,114.983,335.844,110.673z"/>
<path fill="#222222" d="M20.589,70.88c1.826-0.633,3.241-1.123,5.176-1.794C21.901,66.206,21.204,66.438,20.589,70.88z"/>
<polygon fill="#222222" points="150.178,38.166 149.161,38.001 147.759,40.127 148.246,40.497 "/>
<path fill="#222222" d="M127.009,83.389c-0.866-0.706-2.802-5.249-3.538-7.013l-2.987-0.3l-1.027,9.525l6.296,4.458
	C125.753,90.059,128.101,84.271,127.009,83.389z"/>
<path fill="#222222" d="M72.516,77.069l-0.653-0.132l-2.729,1.714l0.116,0.205c-0.465,0.139-0.905,0.261-1.192,0.336l-0.32,1.337
	l4.26,1.02l2.38-2.59c0,0-1.686-0.945-2.532-1.023L72.516,77.069z"/>
<polygon fill="#222222" points="218.397,88.611 217.1,89.026 219.462,90.034 218.544,88.688 "/>
<polygon fill="#222222" points="73.817,77.914 74.867,77.567 74.115,77.411 "/>
<polygon fill="#222222" points="69.425,52.952 60.289,53.319 60.137,57.852 63.973,59.512 64.963,57.402 63.872,55.822 
	65.797,53.108 68.734,53.876 "/>
<polygon fill="#222222" points="100.947,81.879 101.602,81.733 103.372,79.044 101.875,77.952 "/>
<polygon fill="#222222" points="99.417,81.645 98.602,82.398 99.353,82.232 "/>
<path fill="#222222" d="M88.04,80.26l1.75,3.047c-0.886-0.478-1.859-0.947-2.057-0.823c-0.231,0.139-1.448,0.103-2.452,0.05
	l0.677,2.102l-0.228,0.191l3.632,0.869l1.248-0.963l1.229,2.144l0.973-4.837l0.011-0.076l-4.325-1.87L88.04,80.26z"/>
<path fill="#222222" d="M299.224,118.593c-0.028,0.009-0.054,0.021-0.074,0.036c-0.049,0.033-0.12,0.066-0.21,0.092
	c-0.519,0.16-1.688,0.214-2.923,0.208l-1.059,1.757l2.241,5.268l4.46,0.895l4.401-4.23
	C306.061,122.617,300.266,118.271,299.224,118.593z"/>
<polygon fill="#222222" points="339.74,65.58 340.068,65.4 340.021,65.264 "/>
<polygon fill="#222222" points="334.861,59.852 335.252,60.391 336.229,59.791 335.229,59.362 "/>
<path fill="#222222" d="M325.918,51.686l3.732,3.1l-0.201,0.62l7.752-2.679l1.84-5.128c0,0-8.213,0.224-8.652,1.111
	C330.129,49.219,327.834,50.595,325.918,51.686z"/>
<path fill="#222222" d="M288.324,42.306c-0.647,0.38-1.298,0.758-1.919,1.114l0.243,0.123L288.324,42.306z"/>
<polygon fill="#222222" points="284.622,50.304 285.977,48.899 284.004,49.729 "/>
<path fill="#222222" d="M291.162,46.728l-0.44,3.87c0,0,3.128-0.374,3.256-1.069c0.096-0.555,1.635-2.516,2.241-3.274l-0.604-1.398
	L291.162,46.728z"/>
<path fill="#222222" d="M204.683,63.441c0,0-0.463,4.527,0.472,4.922c0.756,0.318,3.035,3.098,3.907,4.187l2.156-0.403l-1.232-6.868
	L204.683,63.441z"/>
<path fill="#222222" d="M298.784,52.842l0.049-0.474l-0.707-1.644l-1.766,0.114l3.067,2.921l-0.411-0.955
	C298.886,52.827,298.784,52.842,298.784,52.842z"/>
<polygon fill="#222222" points="226.868,55.748 228.763,51.321 230.175,49.834 228.473,47.13 223.893,47.215 223.68,46.491 
	221.301,54.488 211.558,52.29 212.56,61.726 219.771,59.642 219.408,60.86 221.34,61.91 222.848,58.753 225.551,57.973 
	225.779,58.286 225.963,57.854 230.457,56.557 "/>
<path fill="#222222" d="M293.809,58.628c-2.701-0.698-4.797-1.235-7.657-1.969C288.502,63.205,289.525,63.486,293.809,58.628z"/>
<polygon fill="#222222" points="254.549,77.149 253.326,76.72 253.829,77.368 253.912,77.404 "/>
<path fill="#222222" d="M280.226,58.209l0.03,0.014l-0.018-0.271l-0.594,0.038l0.407,0.154l-1.276,0.648l-0.166-0.143l-0.146,2.009
	l-1.786-1.3l0.072-0.32l-3.811,1.602l-0.758,2.641c0,0,4.122-0.378,4.316-0.841c0.105-0.246,1.066-0.919,1.945-1.505l-0.031,0.429
	l1.312,1.237c0,0,1.017-2.532,0.802-2.78C280.411,59.682,280.305,58.908,280.226,58.209z"/>
<path fill="#222222" d="M280.616,45.294l-1.002-0.074l-0.235,3.18l2.139,1.416c0,0,0.716-1.948,0.338-2.231
	C281.566,47.363,280.874,45.873,280.616,45.294z"/>
<path fill="#222222" d="M274.727,85.59l-0.87-0.241l-1.749,2.665l0.338,3.007l2.354,1.746c0,0,0.879-4.942,0.518-5.302
	C275.179,87.336,274.936,86.51,274.727,85.59z"/>
<path fill="#222222" d="M274.583,85.471l0.873,0.243c-0.097-0.384-0.192-0.788-0.287-1.155L274.583,85.471z"/>
<polygon fill="#222222" points="252.577,85.15 251.679,84.089 250.353,87.696 249.677,88.49 250.604,89.77 252.923,89.551 
	253.059,89.904 254.834,82.534 253.848,82.084 "/>
<path fill="#222222" d="M272.733,72.253c-0.175,0.195-0.325,0.362-0.486,0.544l1.122-3.587l-5.519-7.998
	c0,0-3.392,5.831-3.576,8.271l-2.816,1.181l1.7-4.732c0,0-11.854,0.317-12.496,1.599c-0.364,0.736-3.674,2.733-6.445,4.296
	l5.385,4.471l-0.29,0.897l8.68-2.998l1.872,0.711l-0.21,1.832c0,0,4.519-0.534,4.701-1.543c0.049-0.297,0.394-0.879,0.841-1.542
	c0.4,2.549,0.725,5.811,0.883,7.479l3.189,1.207l2.275-7.273C273.54,75.188,273.656,74.59,272.733,72.253z M258.973,74l0.07-0.168
	l0.98-0.335l-0.018,0.13C259.391,73.823,258.973,74,258.973,74z"/>
<path fill="#222222" d="M112.081,75.74c0,0,0.364,0.474,0.846,1.136l1.681-2.23L112.081,75.74z"/>
<polygon fill="#222222" points="113.841,91.549 119.293,88.859 115.84,84.62 "/>
<path fill="#222222" d="M397.383,95.184l-0.676,7.685c0,0,6.184-0.898,6.393-2.275c0.176-1.111,3.109-5.073,4.273-6.603
	l-1.258-2.735L397.383,95.184z"/>
<path fill="#222222" d="M393.568,107.253l-0.791,0.524l-0.203,0.379c-0.23-0.919-0.459-1.842-0.688-2.721
	c-3.664,1.486-6.328,3.388-6.328,3.388l0.965-4.957l-11.863,3.199l0.898,1.557l15.863,2.642l2.031,2.234l0.748-8.364l-0.984,1.813
	C393.428,107.121,393.568,107.253,393.568,107.253z"/>
<path fill="#222222" d="M225.295,82.378c0.066-0.568,0.146-1.139,0.232-1.673l-1.132,0.707L225.295,82.378z"/>
<polygon fill="#222222" points="199.642,84.886 198.248,82.937 193.942,87.195 193.181,84.227 188.388,89.445 186.679,90.178 
	187.358,93.588 191.444,95.728 191.44,96.54 "/>
<path fill="#222222" d="M348.727,46.468c-0.254,0.134-1.604,0.018-2.713-0.103l0.615,2.371l-0.268,0.192l3.963,1.196l2.268-1.554
	C352.596,48.572,349.168,46.24,348.727,46.468z"/>
<polygon fill="#222222" points="312.601,54.24 312.66,55.177 313.742,53.764 312.679,54.148 "/>
<path fill="#222222" d="M63.34,86.445l0.51,1.349c0.226-0.5,0.483-1.012,0.709-1.494L63.34,86.445z"/>
<polygon fill="#222222" points="160.073,111.185 165.738,117.312 174.424,111.066 161.916,106.965 159.218,108.66 "/>
<path fill="#222222" d="M74.988,72.408c-1.742,0.024-3.1,0.049-4.949,0.067C72.534,76.051,73.195,76.04,74.988,72.408z"/>
<path fill="#222222" d="M152.501,121.867c1.38,3.481,2.257,5.039,3.319,4.713c0.825-0.251,1.763-1.654,3.125-4.179
	C156.682,122.207,154.906,122.055,152.501,121.867z"/>
<path fill="#222222" d="M225.802,114.225c0.087,1.203-4.726,9.026-4.726,9.026l-3.914,2.066l-3.342,7.236l10.031-2.497
	l11.677-15.264l-1.314-7.057C234.212,107.736,225.72,113.021,225.802,114.225z"/>
<path fill="#222222" d="M145.202,53.585c-0.2,0.136-0.41,0.275-0.604,0.412l0.502,0.374L145.202,53.585z"/>
<path fill="#222222" d="M238.126,119.825c0.735,1.452,1.31,2.579,2.091,4.119C242.187,120.384,241.908,119.83,238.126,119.825z"/>
<polygon fill="#222222" points="215.561,79.381 217.147,97.271 233.542,105.558 228.659,83.059 "/>
<polygon fill="#222222" points="290.958,68.234 290.888,73.22 310.949,68.903 304.202,59.185 "/>
<path fill="#222222" d="M56.318,39.975c-0.387,1.575-5.129,6.891-6.996,8.931l1.454,4.104l13.062-4.522l1.96-10.961
	C65.802,37.526,56.807,38.018,56.318,39.975z"/>
<polygon fill="#222222" points="191.795,23.344 192.628,32.854 194.037,47.501 205.985,31.249 194.129,20.215 "/>
<path fill="#222222" d="M244.442,46.486l-1.671,1.235l11.749,5.985l8.66-3.541l3.668-10.206c0,0-15.104,0.407-15.92,2.044
	C250.53,42.787,247.5,44.706,244.442,46.486z"/>
<path fill="#222222" d="M150.26,76.505l0.652,5.23l-7.152,15.084l-7.932,2.232l1.021,12.436c2.363,1.787,4.52,3.068,4.429,3.122
	c-0.086,0.041-1.956,0.846-4.053,2.077l1.056,3.141c0,0,15.819-18.762,26.017-25.133l-10.136-21.142L150.26,76.505z"/>
<polygon fill="#222222" points="288.608,74.21 291.805,84.649 292.015,92.755 299.555,86.311 "/>
<path fill="#222222" d="M108.974,121.068c-6.08-3.633-10.804-6.472-17.241-10.324C92.735,128.381,95.039,129.789,108.974,121.068z"
	/>
<path fill="#222222" d="M200.981,33.879l4.295-9.517c-2.555,0.425-5.73,0.871-6.299,0.499c-0.091-0.061-0.249-0.051-0.457,0.011
	c-1.979,0.607-8.61,6.269-8.61,6.269l5.318,4.629L200.981,33.879z"/>
<path fill="#222222" d="M257.716,120.944l8.595-8.829L265.334,104c0,0-10.873,5.829-10.873,7.322
	c0.002,0.862-2.138,4.261-3.983,7.009l7.093,1.641L257.716,120.944z"/>
<path fill="#222222" d="M8.9,108.442c0.566-0.697,7.095-2.479,7.095-2.479l3.142,0.862l5.444-2.199l-6.651-3.716l-13.966,2.323
	l-2.849,4.459C1.115,107.692,8.339,109.125,8.9,108.442z"/>
</svg>
